<svg width="536" height="285" viewBox="0 0 536 285" fill="none" xmlns="http://www.w3.org/2000/svg">
<rect x="7" y="7" width="521" height="270" rx="44" fill="#D9D9D9"/>
<rect x="7" y="7" width="521" height="270" rx="44" fill="url(#paint0_radial_163_223)"/>
<rect x="7" y="7" width="521" height="270" rx="44" stroke="#5F5E5E" stroke-width="12"/>
<rect x="19" y="19" width="497" height="246" rx="34" fill="#D9D9D9"/>
<rect x="19" y="19" width="497" height="246" rx="34" fill="url(#paint1_radial_163_223)"/>
<rect x="19" y="19" width="497" height="246" rx="34" stroke="#FF3B3B" stroke-width="4"/>
<g filter="url(#filter1_i_163_223)">
<path d="M214.5 0H319.75L338.25 21.5H196L214.5 0Z" fill="#696968"/>
</g>
<path d="M319.636 0.25L337.705 21.25H196.545L214.614 0.25H319.636Z" stroke="#A0A0A0" stroke-width="0.5"/>
<g filter="url(#filter2_i_163_223)">
<path d="M227.75 6L307.5 5.5L311.75 9.75L304.75 16H230.75L223 9.75L227.75 6Z" fill="#312F2A"/>
</g>
<path d="M312.478 9.77051L312.083 10.123L305.083 16.373L304.94 16.5H230.573L230.437 16.3896L222.687 10.1396L222.198 9.74609L222.69 9.35742L227.44 5.60742L227.575 5.50098L227.747 5.5L307.497 5L307.706 4.99902L312.478 9.77051Z" stroke="#85827C"/>
<g filter="url(#filter3_i_163_223)">
<path d="M234.854 6L299.552 5.5L303 9.75L297.321 16H237.287L231 9.75L234.854 6Z" fill="#312F2A"/>
</g>
<rect x="242.25" y="8.5" width="15" height="5" rx="1" fill="#FF3B3B"/>
<rect x="260.25" y="8.5" width="14.5" height="5" rx="1" fill="#FF3B3B"/>
<rect x="277.75" y="8.5" width="15" height="5" rx="1" fill="#FF3B3B"/>
<g filter="url(#filter4_i_163_223)">
<circle cx="317.75" cy="9.75" r="2.25" fill="#D9D9D9"/>
</g>
<rect x="317.5" y="8.25" width="0.5" height="3" fill="#3C3B3B"/>
<g filter="url(#filter5_i_163_223)">
<circle cx="216.25" cy="9.75" r="2.25" fill="#D9D9D9"/>
</g>
<rect x="216" y="8.25" width="0.5" height="3" fill="#3C3B3B"/>
<g filter="url(#filter6_i_163_223)">
<path d="M214.5 284.5H319.75L338.25 263H196L214.5 284.5Z" fill="#696968"/>
</g>
<path d="M319.636 284.25L337.705 263.25H196.545L214.614 284.25H319.636Z" stroke="#A0A0A0" stroke-width="0.5"/>
<g filter="url(#filter7_i_163_223)">
<path d="M227.75 278.5L307.5 279L311.75 274.75L304.75 268.5H230.75L223 274.75L227.75 278.5Z" fill="#312F2A"/>
</g>
<path d="M312.478 274.729L312.083 274.377L305.083 268.127L304.94 268H230.573L230.437 268.11L222.687 274.36L222.198 274.754L222.69 275.143L227.44 278.893L227.575 278.999L227.747 279L307.497 279.5L307.706 279.501L312.478 274.729Z" stroke="#85827C"/>
<g filter="url(#filter8_i_163_223)">
<path d="M234.854 278.5L299.552 279L303 274.75L297.321 268.5H237.287L231 274.75L234.854 278.5Z" fill="#312F2A"/>
</g>
<rect width="15" height="5" rx="1" transform="matrix(1 0 0 -1 242.25 276)" fill="#FF3B3B"/>
<rect width="14.5" height="5" rx="1" transform="matrix(1 0 0 -1 260.25 276)" fill="#FF3B3B"/>
<rect width="15" height="5" rx="1" transform="matrix(1 0 0 -1 277.75 276)" fill="#FF3B3B"/>
<g filter="url(#filter9_i_163_223)">
<circle cx="2.25" cy="2.25" r="2.25" transform="matrix(1 0 0 -1 315.5 277)" fill="#D9D9D9"/>
</g>
<rect width="0.5" height="3" transform="matrix(1 0 0 -1 317.5 276.25)" fill="#3C3B3B"/>
<g filter="url(#filter10_i_163_223)">
<circle cx="2.25" cy="2.25" r="2.25" transform="matrix(1 0 0 -1 214 277)" fill="#D9D9D9"/>
</g>
<rect width="0.5" height="3" transform="matrix(1 0 0 -1 216 276.25)" fill="#3C3B3B"/>
<g filter="url(#filter11_i_163_223)">
<path d="M0 102.916V182.084L21.5 196V89L0 102.916Z" fill="#696968"/>
</g>
<path d="M0.25 181.948L21.25 195.54V89.46L0.25 103.052V181.948Z" stroke="#A0A0A0" stroke-width="0.5"/>
<g filter="url(#filter12_i_163_223)">
<path d="M6 112.882L5.5 172.87L9.75 176.067L16 170.801V115.139L9.75 109.309L6 112.882Z" fill="#312F2A"/>
</g>
<path d="M5.19922 173.269L9.44922 176.467L9.76758 176.706L10.0723 176.449L16.3223 171.183L16.5 171.034V114.922L16.3408 114.773L10.0908 108.944L9.74609 108.622L9.40527 108.947L5.65527 112.52L5.50195 112.667L5.5 112.878L5 172.866L4.99805 173.118L5.19922 173.269Z" stroke="#85827C"/>
<g filter="url(#filter13_i_163_223)">
<path d="M6 118.226L5.5 166.892L9.75 169.485L16 165.214V120.056L9.75 115.327L6 118.226Z" fill="#312F2A"/>
</g>
<rect width="11.283" height="5" rx="1" transform="matrix(0 1 1 0 8.5 123.789)" fill="#FF3B3B"/>
<rect width="10.9069" height="5" rx="1" transform="matrix(0 1 1 0 8.5 137.329)" fill="#FF3B3B"/>
<rect width="11.283" height="5" rx="1" transform="matrix(0 1 1 0 8.5 150.492)" fill="#FF3B3B"/>
<g filter="url(#filter14_i_163_223)">
<circle cx="1.95141" cy="1.95141" r="1.95141" transform="matrix(0 1 1 0 7.79883 178.629)" fill="#D9D9D9"/>
</g>
<rect width="0.433646" height="2.60188" transform="matrix(0 1 1 0 8.44922 180.363)" fill="#3C3B3B"/>
<g filter="url(#filter15_i_163_223)">
<circle cx="1.95141" cy="1.95141" r="1.95141" transform="matrix(0 1 1 0 7.79834 102.281)" fill="#D9D9D9"/>
</g>
<rect width="0.433646" height="2.60188" transform="matrix(0 1 1 0 8.44922 104.015)" fill="#3C3B3B"/>
<g filter="url(#filter16_i_163_223)">
<path d="M535.5 102.916V182.084L514 196V89L535.5 102.916Z" fill="#696968"/>
</g>
<path d="M535.25 181.948L514.25 195.54V89.46L535.25 103.052V181.948Z" stroke="#A0A0A0" stroke-width="0.5"/>
<g filter="url(#filter17_i_163_223)">
<path d="M529.5 112.882L530 172.87L525.75 176.067L519.5 170.801V115.139L525.75 109.309L529.5 112.882Z" fill="#312F2A"/>
</g>
<path d="M530.301 173.269L526.051 176.467L525.732 176.706L525.428 176.449L519.178 171.183L519 171.034V114.922L519.159 114.773L525.409 108.944L525.754 108.622L526.095 108.947L529.845 112.52L529.998 112.667L530 112.878L530.5 172.866L530.502 173.118L530.301 173.269Z" stroke="#85827C"/>
<g filter="url(#filter18_i_163_223)">
<path d="M529.5 118.226L530 166.892L525.75 169.485L519.5 165.214V120.056L525.75 115.327L529.5 118.226Z" fill="#312F2A"/>
</g>
<rect x="527" y="123.789" width="11.283" height="5" rx="1" transform="rotate(90 527 123.789)" fill="#FF3B3B"/>
<rect x="527" y="137.329" width="10.9069" height="5" rx="1" transform="rotate(90 527 137.329)" fill="#FF3B3B"/>
<rect x="527" y="150.492" width="11.283" height="5" rx="1" transform="rotate(90 527 150.492)" fill="#FF3B3B"/>
<g filter="url(#filter19_i_163_223)">
<circle cx="525.75" cy="180.58" r="1.95141" transform="rotate(90 525.75 180.58)" fill="#D9D9D9"/>
</g>
<rect x="527.051" y="180.363" width="0.433646" height="2.60188" transform="rotate(90 527.051 180.363)" fill="#3C3B3B"/>
<g filter="url(#filter20_i_163_223)">
<circle cx="525.75" cy="104.232" r="1.95141" transform="rotate(90 525.75 104.232)" fill="#D9D9D9"/>
</g>
<rect x="527.051" y="104.015" width="0.433646" height="2.60188" transform="rotate(90 527.051 104.015)" fill="#3C3B3B"/>
<defs>
<filter id="filter1_i_163_223" x="196" y="0" width="142.25" height="21.5" filterUnits="userSpaceOnUse" color-interpolation-filters="sRGB">
<feFlood flood-opacity="0" result="BackgroundImageFix"/>
<feBlend mode="normal" in="SourceGraphic" in2="BackgroundImageFix" result="shape"/>
<feColorMatrix in="SourceAlpha" type="matrix" values="0 0 0 0 0 0 0 0 0 0 0 0 0 0 0 0 0 0 127 0" result="hardAlpha"/>
<feOffset/>
<feGaussianBlur stdDeviation="1.5"/>
<feComposite in2="hardAlpha" operator="arithmetic" k2="-1" k3="1"/>
<feColorMatrix type="matrix" values="0 0 0 0 0 0 0 0 0 0 0 0 0 0 0 0 0 0 0.5 0"/>
<feBlend mode="normal" in2="shape" result="effect1_innerShadow_163_223"/>
</filter>
<filter id="filter2_i_163_223" x="221.396" y="1.99744" width="91.8091" height="15.0026" filterUnits="userSpaceOnUse" color-interpolation-filters="sRGB">
<feFlood flood-opacity="0" result="BackgroundImageFix"/>
<feBlend mode="normal" in="SourceGraphic" in2="BackgroundImageFix" result="shape"/>
<feColorMatrix in="SourceAlpha" type="matrix" values="0 0 0 0 0 0 0 0 0 0 0 0 0 0 0 0 0 0 127 0" result="hardAlpha"/>
<feOffset dy="-2.5"/>
<feGaussianBlur stdDeviation="3"/>
<feComposite in2="hardAlpha" operator="arithmetic" k2="-1" k3="1"/>
<feColorMatrix type="matrix" values="0 0 0 0 0 0 0 0 0 0 0 0 0 0 0 0 0 0 0.57 0"/>
<feBlend mode="normal" in2="shape" result="effect1_innerShadow_163_223"/>
</filter>
<filter id="filter3_i_163_223" x="231" y="3" width="72" height="13" filterUnits="userSpaceOnUse" color-interpolation-filters="sRGB">
<feFlood flood-opacity="0" result="BackgroundImageFix"/>
<feBlend mode="normal" in="SourceGraphic" in2="BackgroundImageFix" result="shape"/>
<feColorMatrix in="SourceAlpha" type="matrix" values="0 0 0 0 0 0 0 0 0 0 0 0 0 0 0 0 0 0 127 0" result="hardAlpha"/>
<feOffset dy="-2.5"/>
<feGaussianBlur stdDeviation="3"/>
<feComposite in2="hardAlpha" operator="arithmetic" k2="-1" k3="1"/>
<feColorMatrix type="matrix" values="0 0 0 0 0 0 0 0 0 0 0 0 0 0 0 0 0 0 0.57 0"/>
<feBlend mode="normal" in2="shape" result="effect1_innerShadow_163_223"/>
</filter>
<filter id="filter4_i_163_223" x="315.5" y="7.5" width="4.5" height="4.5" filterUnits="userSpaceOnUse" color-interpolation-filters="sRGB">
<feFlood flood-opacity="0" result="BackgroundImageFix"/>
<feBlend mode="normal" in="SourceGraphic" in2="BackgroundImageFix" result="shape"/>
<feColorMatrix in="SourceAlpha" type="matrix" values="0 0 0 0 0 0 0 0 0 0 0 0 0 0 0 0 0 0 127 0" result="hardAlpha"/>
<feOffset/>
<feGaussianBlur stdDeviation="0.5"/>
<feComposite in2="hardAlpha" operator="arithmetic" k2="-1" k3="1"/>
<feColorMatrix type="matrix" values="0 0 0 0 0 0 0 0 0 0 0 0 0 0 0 0 0 0 0.6 0"/>
<feBlend mode="normal" in2="shape" result="effect1_innerShadow_163_223"/>
</filter>
<filter id="filter5_i_163_223" x="214" y="7.5" width="4.5" height="4.5" filterUnits="userSpaceOnUse" color-interpolation-filters="sRGB">
<feFlood flood-opacity="0" result="BackgroundImageFix"/>
<feBlend mode="normal" in="SourceGraphic" in2="BackgroundImageFix" result="shape"/>
<feColorMatrix in="SourceAlpha" type="matrix" values="0 0 0 0 0 0 0 0 0 0 0 0 0 0 0 0 0 0 127 0" result="hardAlpha"/>
<feOffset/>
<feGaussianBlur stdDeviation="0.5"/>
<feComposite in2="hardAlpha" operator="arithmetic" k2="-1" k3="1"/>
<feColorMatrix type="matrix" values="0 0 0 0 0 0 0 0 0 0 0 0 0 0 0 0 0 0 0.6 0"/>
<feBlend mode="normal" in2="shape" result="effect1_innerShadow_163_223"/>
</filter>
<filter id="filter6_i_163_223" x="196" y="263" width="142.25" height="21.5" filterUnits="userSpaceOnUse" color-interpolation-filters="sRGB">
<feFlood flood-opacity="0" result="BackgroundImageFix"/>
<feBlend mode="normal" in="SourceGraphic" in2="BackgroundImageFix" result="shape"/>
<feColorMatrix in="SourceAlpha" type="matrix" values="0 0 0 0 0 0 0 0 0 0 0 0 0 0 0 0 0 0 127 0" result="hardAlpha"/>
<feOffset/>
<feGaussianBlur stdDeviation="1.5"/>
<feComposite in2="hardAlpha" operator="arithmetic" k2="-1" k3="1"/>
<feColorMatrix type="matrix" values="0 0 0 0 0 0 0 0 0 0 0 0 0 0 0 0 0 0 0.5 0"/>
<feBlend mode="normal" in2="shape" result="effect1_innerShadow_163_223"/>
</filter>
<filter id="filter7_i_163_223" x="221.396" y="265" width="91.8091" height="15.0026" filterUnits="userSpaceOnUse" color-interpolation-filters="sRGB">
<feFlood flood-opacity="0" result="BackgroundImageFix"/>
<feBlend mode="normal" in="SourceGraphic" in2="BackgroundImageFix" result="shape"/>
<feColorMatrix in="SourceAlpha" type="matrix" values="0 0 0 0 0 0 0 0 0 0 0 0 0 0 0 0 0 0 127 0" result="hardAlpha"/>
<feOffset dy="-2.5"/>
<feGaussianBlur stdDeviation="3"/>
<feComposite in2="hardAlpha" operator="arithmetic" k2="-1" k3="1"/>
<feColorMatrix type="matrix" values="0 0 0 0 0 0 0 0 0 0 0 0 0 0 0 0 0 0 0.57 0"/>
<feBlend mode="normal" in2="shape" result="effect1_innerShadow_163_223"/>
</filter>
<filter id="filter8_i_163_223" x="231" y="266" width="72" height="13" filterUnits="userSpaceOnUse" color-interpolation-filters="sRGB">
<feFlood flood-opacity="0" result="BackgroundImageFix"/>
<feBlend mode="normal" in="SourceGraphic" in2="BackgroundImageFix" result="shape"/>
<feColorMatrix in="SourceAlpha" type="matrix" values="0 0 0 0 0 0 0 0 0 0 0 0 0 0 0 0 0 0 127 0" result="hardAlpha"/>
<feOffset dy="-2.5"/>
<feGaussianBlur stdDeviation="3"/>
<feComposite in2="hardAlpha" operator="arithmetic" k2="-1" k3="1"/>
<feColorMatrix type="matrix" values="0 0 0 0 0 0 0 0 0 0 0 0 0 0 0 0 0 0 0.57 0"/>
<feBlend mode="normal" in2="shape" result="effect1_innerShadow_163_223"/>
</filter>
<filter id="filter9_i_163_223" x="315.5" y="272.5" width="4.5" height="4.5" filterUnits="userSpaceOnUse" color-interpolation-filters="sRGB">
<feFlood flood-opacity="0" result="BackgroundImageFix"/>
<feBlend mode="normal" in="SourceGraphic" in2="BackgroundImageFix" result="shape"/>
<feColorMatrix in="SourceAlpha" type="matrix" values="0 0 0 0 0 0 0 0 0 0 0 0 0 0 0 0 0 0 127 0" result="hardAlpha"/>
<feOffset/>
<feGaussianBlur stdDeviation="0.5"/>
<feComposite in2="hardAlpha" operator="arithmetic" k2="-1" k3="1"/>
<feColorMatrix type="matrix" values="0 0 0 0 0 0 0 0 0 0 0 0 0 0 0 0 0 0 0.6 0"/>
<feBlend mode="normal" in2="shape" result="effect1_innerShadow_163_223"/>
</filter>
<filter id="filter10_i_163_223" x="214" y="272.5" width="4.5" height="4.5" filterUnits="userSpaceOnUse" color-interpolation-filters="sRGB">
<feFlood flood-opacity="0" result="BackgroundImageFix"/>
<feBlend mode="normal" in="SourceGraphic" in2="BackgroundImageFix" result="shape"/>
<feColorMatrix in="SourceAlpha" type="matrix" values="0 0 0 0 0 0 0 0 0 0 0 0 0 0 0 0 0 0 127 0" result="hardAlpha"/>
<feOffset/>
<feGaussianBlur stdDeviation="0.5"/>
<feComposite in2="hardAlpha" operator="arithmetic" k2="-1" k3="1"/>
<feColorMatrix type="matrix" values="0 0 0 0 0 0 0 0 0 0 0 0 0 0 0 0 0 0 0.6 0"/>
<feBlend mode="normal" in2="shape" result="effect1_innerShadow_163_223"/>
</filter>
<filter id="filter11_i_163_223" x="0" y="89" width="21.5" height="107" filterUnits="userSpaceOnUse" color-interpolation-filters="sRGB">
<feFlood flood-opacity="0" result="BackgroundImageFix"/>
<feBlend mode="normal" in="SourceGraphic" in2="BackgroundImageFix" result="shape"/>
<feColorMatrix in="SourceAlpha" type="matrix" values="0 0 0 0 0 0 0 0 0 0 0 0 0 0 0 0 0 0 127 0" result="hardAlpha"/>
<feOffset/>
<feGaussianBlur stdDeviation="1.5"/>
<feComposite in2="hardAlpha" operator="arithmetic" k2="-1" k3="1"/>
<feColorMatrix type="matrix" values="0 0 0 0 0 0 0 0 0 0 0 0 0 0 0 0 0 0 0.5 0"/>
<feBlend mode="normal" in2="shape" result="effect1_innerShadow_163_223"/>
</filter>
<filter id="filter12_i_163_223" x="4.49561" y="105.435" width="12.5044" height="71.9095" filterUnits="userSpaceOnUse" color-interpolation-filters="sRGB">
<feFlood flood-opacity="0" result="BackgroundImageFix"/>
<feBlend mode="normal" in="SourceGraphic" in2="BackgroundImageFix" result="shape"/>
<feColorMatrix in="SourceAlpha" type="matrix" values="0 0 0 0 0 0 0 0 0 0 0 0 0 0 0 0 0 0 127 0" result="hardAlpha"/>
<feOffset dy="-2.5"/>
<feGaussianBlur stdDeviation="3"/>
<feComposite in2="hardAlpha" operator="arithmetic" k2="-1" k3="1"/>
<feColorMatrix type="matrix" values="0 0 0 0 0 0 0 0 0 0 0 0 0 0 0 0 0 0 0.57 0"/>
<feBlend mode="normal" in2="shape" result="effect1_innerShadow_163_223"/>
</filter>
<filter id="filter13_i_163_223" x="5.5" y="112.827" width="10.5" height="56.6582" filterUnits="userSpaceOnUse" color-interpolation-filters="sRGB">
<feFlood flood-opacity="0" result="BackgroundImageFix"/>
<feBlend mode="normal" in="SourceGraphic" in2="BackgroundImageFix" result="shape"/>
<feColorMatrix in="SourceAlpha" type="matrix" values="0 0 0 0 0 0 0 0 0 0 0 0 0 0 0 0 0 0 127 0" result="hardAlpha"/>
<feOffset dy="-2.5"/>
<feGaussianBlur stdDeviation="3"/>
<feComposite in2="hardAlpha" operator="arithmetic" k2="-1" k3="1"/>
<feColorMatrix type="matrix" values="0 0 0 0 0 0 0 0 0 0 0 0 0 0 0 0 0 0 0.57 0"/>
<feBlend mode="normal" in2="shape" result="effect1_innerShadow_163_223"/>
</filter>
<filter id="filter14_i_163_223" x="7.79883" y="178.629" width="3.90283" height="3.90283" filterUnits="userSpaceOnUse" color-interpolation-filters="sRGB">
<feFlood flood-opacity="0" result="BackgroundImageFix"/>
<feBlend mode="normal" in="SourceGraphic" in2="BackgroundImageFix" result="shape"/>
<feColorMatrix in="SourceAlpha" type="matrix" values="0 0 0 0 0 0 0 0 0 0 0 0 0 0 0 0 0 0 127 0" result="hardAlpha"/>
<feOffset/>
<feGaussianBlur stdDeviation="0.5"/>
<feComposite in2="hardAlpha" operator="arithmetic" k2="-1" k3="1"/>
<feColorMatrix type="matrix" values="0 0 0 0 0 0 0 0 0 0 0 0 0 0 0 0 0 0 0.6 0"/>
<feBlend mode="normal" in2="shape" result="effect1_innerShadow_163_223"/>
</filter>
<filter id="filter15_i_163_223" x="7.79834" y="102.281" width="3.90283" height="3.90283" filterUnits="userSpaceOnUse" color-interpolation-filters="sRGB">
<feFlood flood-opacity="0" result="BackgroundImageFix"/>
<feBlend mode="normal" in="SourceGraphic" in2="BackgroundImageFix" result="shape"/>
<feColorMatrix in="SourceAlpha" type="matrix" values="0 0 0 0 0 0 0 0 0 0 0 0 0 0 0 0 0 0 127 0" result="hardAlpha"/>
<feOffset/>
<feGaussianBlur stdDeviation="0.5"/>
<feComposite in2="hardAlpha" operator="arithmetic" k2="-1" k3="1"/>
<feColorMatrix type="matrix" values="0 0 0 0 0 0 0 0 0 0 0 0 0 0 0 0 0 0 0.6 0"/>
<feBlend mode="normal" in2="shape" result="effect1_innerShadow_163_223"/>
</filter>
<filter id="filter16_i_163_223" x="514" y="89" width="21.5" height="107" filterUnits="userSpaceOnUse" color-interpolation-filters="sRGB">
<feFlood flood-opacity="0" result="BackgroundImageFix"/>
<feBlend mode="normal" in="SourceGraphic" in2="BackgroundImageFix" result="shape"/>
<feColorMatrix in="SourceAlpha" type="matrix" values="0 0 0 0 0 0 0 0 0 0 0 0 0 0 0 0 0 0 127 0" result="hardAlpha"/>
<feOffset/>
<feGaussianBlur stdDeviation="1.5"/>
<feComposite in2="hardAlpha" operator="arithmetic" k2="-1" k3="1"/>
<feColorMatrix type="matrix" values="0 0 0 0 0 0 0 0 0 0 0 0 0 0 0 0 0 0 0.5 0"/>
<feBlend mode="normal" in2="shape" result="effect1_innerShadow_163_223"/>
</filter>
<filter id="filter17_i_163_223" x="518.5" y="105.435" width="12.5044" height="71.9095" filterUnits="userSpaceOnUse" color-interpolation-filters="sRGB">
<feFlood flood-opacity="0" result="BackgroundImageFix"/>
<feBlend mode="normal" in="SourceGraphic" in2="BackgroundImageFix" result="shape"/>
<feColorMatrix in="SourceAlpha" type="matrix" values="0 0 0 0 0 0 0 0 0 0 0 0 0 0 0 0 0 0 127 0" result="hardAlpha"/>
<feOffset dy="-2.5"/>
<feGaussianBlur stdDeviation="3"/>
<feComposite in2="hardAlpha" operator="arithmetic" k2="-1" k3="1"/>
<feColorMatrix type="matrix" values="0 0 0 0 0 0 0 0 0 0 0 0 0 0 0 0 0 0 0.57 0"/>
<feBlend mode="normal" in2="shape" result="effect1_innerShadow_163_223"/>
</filter>
<filter id="filter18_i_163_223" x="519.5" y="112.827" width="10.5" height="56.6582" filterUnits="userSpaceOnUse" color-interpolation-filters="sRGB">
<feFlood flood-opacity="0" result="BackgroundImageFix"/>
<feBlend mode="normal" in="SourceGraphic" in2="BackgroundImageFix" result="shape"/>
<feColorMatrix in="SourceAlpha" type="matrix" values="0 0 0 0 0 0 0 0 0 0 0 0 0 0 0 0 0 0 127 0" result="hardAlpha"/>
<feOffset dy="-2.5"/>
<feGaussianBlur stdDeviation="3"/>
<feComposite in2="hardAlpha" operator="arithmetic" k2="-1" k3="1"/>
<feColorMatrix type="matrix" values="0 0 0 0 0 0 0 0 0 0 0 0 0 0 0 0 0 0 0.57 0"/>
<feBlend mode="normal" in2="shape" result="effect1_innerShadow_163_223"/>
</filter>
<filter id="filter19_i_163_223" x="523.798" y="178.629" width="3.90283" height="3.90283" filterUnits="userSpaceOnUse" color-interpolation-filters="sRGB">
<feFlood flood-opacity="0" result="BackgroundImageFix"/>
<feBlend mode="normal" in="SourceGraphic" in2="BackgroundImageFix" result="shape"/>
<feColorMatrix in="SourceAlpha" type="matrix" values="0 0 0 0 0 0 0 0 0 0 0 0 0 0 0 0 0 0 127 0" result="hardAlpha"/>
<feOffset/>
<feGaussianBlur stdDeviation="0.5"/>
<feComposite in2="hardAlpha" operator="arithmetic" k2="-1" k3="1"/>
<feColorMatrix type="matrix" values="0 0 0 0 0 0 0 0 0 0 0 0 0 0 0 0 0 0 0.6 0"/>
<feBlend mode="normal" in2="shape" result="effect1_innerShadow_163_223"/>
</filter>
<filter id="filter20_i_163_223" x="523.799" y="102.281" width="3.90283" height="3.90283" filterUnits="userSpaceOnUse" color-interpolation-filters="sRGB">
<feFlood flood-opacity="0" result="BackgroundImageFix"/>
<feBlend mode="normal" in="SourceGraphic" in2="BackgroundImageFix" result="shape"/>
<feColorMatrix in="SourceAlpha" type="matrix" values="0 0 0 0 0 0 0 0 0 0 0 0 0 0 0 0 0 0 127 0" result="hardAlpha"/>
<feOffset/>
<feGaussianBlur stdDeviation="0.5"/>
<feComposite in2="hardAlpha" operator="arithmetic" k2="-1" k3="1"/>
<feColorMatrix type="matrix" values="0 0 0 0 0 0 0 0 0 0 0 0 0 0 0 0 0 0 0.6 0"/>
<feBlend mode="normal" in2="shape" result="effect1_innerShadow_163_223"/>
</filter>
<radialGradient id="paint0_radial_163_223" cx="0" cy="0" r="1" gradientUnits="userSpaceOnUse" gradientTransform="translate(271.302 142.35) scale(348.139 184.254)">
<stop stop-color="#501212"/>
<stop offset="1"/>
</radialGradient>
<radialGradient id="paint1_radial_163_223" cx="0" cy="0" r="1" gradientUnits="userSpaceOnUse" gradientTransform="translate(271.074 142.31) scale(327.238 163.346)">
<stop stop-color="#501212"/>
<stop offset="1"/>
</radialGradient>
</defs>
</svg>
