<svg width="971" height="170" viewBox="0 0 971 170" fill="none" xmlns="http://www.w3.org/2000/svg">
<rect x="4.2" y="4.2" width="961.6" height="159.6" rx="30.8" fill="#D9D9D9"/>
<rect x="4.2" y="4.2" width="961.6" height="159.6" rx="30.8" fill="url(#paint0_radial_352_841)"/>
<rect x="4.2" y="4.2" width="961.6" height="159.6" rx="30.8" stroke="#5F5E5E" stroke-width="8.4"/>
<g filter="url(#filter1_i_352_841)">
<rect x="12" y="10" width="946" height="146" rx="25.2" fill="url(#paint1_radial_352_841)"/>
</g>
<rect x="13.4" y="11.4" width="943.2" height="143.2" rx="23.8" stroke="#FBEDDE" stroke-width="2.8"/>
<g filter="url(#filter2_i_352_841)">
<path d="M447.95 0.000244141H521.625L534.575 15.0502H435L447.95 0.000244141Z" fill="#696968"/>
</g>
<path d="M521.544 0.175049L534.193 14.8752H435.382L448.031 0.175049H521.544Z" stroke="#A0A0A0" stroke-width="0.35"/>
<g filter="url(#filter3_i_352_841)">
<path d="M457.225 4.20034L513.05 3.85034L516.025 6.82534L511.125 11.2003H459.325L453.9 6.82534L457.225 4.20034Z" fill="#312F2A"/>
</g>
<path d="M516.272 6.57788L516.535 6.8396L516.259 7.08667L511.358 11.4617L511.259 11.5505H459.202L459.105 11.4724L453.681 7.09741L453.339 6.82202L453.684 6.55054L457.009 3.92554L457.103 3.85132L457.224 3.85034L513.048 3.50073L513.194 3.49976L516.272 6.57788Z" stroke="#85827C" stroke-width="0.7"/>
<g filter="url(#filter4_i_352_841)">
<path d="M462.198 4.20034L507.487 3.85034L509.901 6.82534L505.926 11.2003H463.902L459.501 6.82534L462.198 4.20034Z" fill="#312F2A"/>
</g>
<rect x="467.376" y="5.95044" width="10.5" height="3.5" rx="0.7" fill="#FBEDDE"/>
<rect x="479.976" y="5.95044" width="10.15" height="3.5" rx="0.7" fill="#FBEDDE"/>
<rect x="492.226" y="5.95044" width="10.5" height="3.5" rx="0.7" fill="#FBEDDE"/>
<g filter="url(#filter5_i_352_841)">
<circle cx="520.225" cy="6.82524" r="1.575" fill="#D9D9D9"/>
</g>
<rect x="520.051" y="5.77539" width="0.35" height="2.1" fill="#3C3B3B"/>
<g filter="url(#filter6_i_352_841)">
<circle cx="449.175" cy="6.82524" r="1.575" fill="#D9D9D9"/>
</g>
<rect x="449" y="5.77539" width="0.35" height="2.1" fill="#3C3B3B"/>
<g filter="url(#filter7_i_352_841)">
<path d="M447.95 169.05H521.625L534.575 154H435L447.95 169.05Z" fill="#696968"/>
</g>
<path d="M521.544 168.875L534.193 154.175H435.382L448.031 168.875H521.544Z" stroke="#A0A0A0" stroke-width="0.35"/>
<g filter="url(#filter8_i_352_841)">
<path d="M457.225 164.849L513.05 165.199L516.025 162.224L511.125 157.849H459.325L453.9 162.224L457.225 164.849Z" fill="#312F2A"/>
</g>
<path d="M516.272 162.472L516.535 162.21L516.259 161.963L511.358 157.588L511.259 157.499H459.202L459.105 157.577L453.681 161.952L453.339 162.228L453.684 162.499L457.009 165.124L457.103 165.198L457.224 165.199L513.048 165.549L513.194 165.55L516.272 162.472Z" stroke="#85827C" stroke-width="0.7"/>
<g filter="url(#filter9_i_352_841)">
<path d="M462.198 164.849L507.487 165.199L509.901 162.224L505.926 157.849H463.902L459.501 162.224L462.198 164.849Z" fill="#312F2A"/>
</g>
<rect width="10.5" height="3.5" rx="0.7" transform="matrix(1 0 0 -1 467.376 163.099)" fill="#FBEDDE"/>
<rect width="10.15" height="3.5" rx="0.7" transform="matrix(1 0 0 -1 479.976 163.099)" fill="#FBEDDE"/>
<rect width="10.5" height="3.5" rx="0.7" transform="matrix(1 0 0 -1 492.226 163.099)" fill="#FBEDDE"/>
<g filter="url(#filter10_i_352_841)">
<circle cx="1.575" cy="1.575" r="1.575" transform="matrix(1 0 0 -1 518.65 163.8)" fill="#D9D9D9"/>
</g>
<rect width="0.35" height="2.1" transform="matrix(1 0 0 -1 520.051 163.274)" fill="#3C3B3B"/>
<g filter="url(#filter11_i_352_841)">
<circle cx="1.575" cy="1.575" r="1.575" transform="matrix(1 0 0 -1 447.6 163.8)" fill="#D9D9D9"/>
</g>
<rect width="0.35" height="2.1" transform="matrix(1 0 0 -1 449 163.274)" fill="#3C3B3B"/>
<g filter="url(#filter12_i_352_841)">
<path d="M0 60.7409V116.159L15.05 125.9V51L0 60.7409Z" fill="#696968"/>
</g>
<path d="M0.174805 116.063L14.875 125.578V51.3213L0.174805 60.8359V116.063Z" stroke="#A0A0A0" stroke-width="0.35"/>
<g filter="url(#filter13_i_352_841)">
<path d="M4.19961 67.7174L3.84961 109.709L6.82461 111.947L11.1996 108.261V69.297L6.82461 65.2163L4.19961 67.7174Z" fill="#312F2A"/>
</g>
<path d="M3.63965 109.989L6.61426 112.226L6.83691 112.394L7.0498 112.214L11.4248 108.529L11.5498 108.423V69.145L11.4385 69.0415L7.06348 64.9604L6.82227 64.7349L6.58301 64.9634L3.95801 67.4644L3.85059 67.5659L3.84961 67.7144L3.5 109.706L3.49805 109.882L3.63965 109.989Z" stroke="#85827C" stroke-width="0.7"/>
<g filter="url(#filter14_i_352_841)">
<path d="M4.19961 71.4576L3.84961 105.524L6.82461 107.339L11.1996 104.349V72.7391L6.82461 69.4286L4.19961 71.4576Z" fill="#312F2A"/>
</g>
<rect width="7.89807" height="3.5" rx="0.7" transform="matrix(0 1 1 0 5.9502 75.3523)" fill="#FBEDDE"/>
<rect width="7.6348" height="3.5" rx="0.7" transform="matrix(0 1 1 0 5.9502 84.8298)" fill="#FBEDDE"/>
<rect width="7.89807" height="3.5" rx="0.7" transform="matrix(0 1 1 0 5.9502 94.0444)" fill="#FBEDDE"/>
<g filter="url(#filter15_i_352_841)">
<circle cx="1.36599" cy="1.36599" r="1.36599" transform="matrix(0 1 1 0 5.45898 113.74)" fill="#D9D9D9"/>
</g>
<rect width="0.303552" height="1.82131" transform="matrix(0 1 1 0 5.91406 114.954)" fill="#3C3B3B"/>
<g filter="url(#filter16_i_352_841)">
<circle cx="1.36599" cy="1.36599" r="1.36599" transform="matrix(0 1 1 0 5.45898 60.2964)" fill="#D9D9D9"/>
</g>
<rect width="0.303552" height="1.82131" transform="matrix(0 1 1 0 5.91406 61.5105)" fill="#3C3B3B"/>
<g filter="url(#filter17_i_352_841)">
<path d="M970.05 58.7409V114.159L955 123.9V49L970.05 58.7409Z" fill="#696968"/>
</g>
<path d="M969.875 114.063L955.175 123.578V49.3213L969.875 58.8359V114.063Z" stroke="#A0A0A0" stroke-width="0.35"/>
<g filter="url(#filter18_i_352_841)">
<path d="M965.85 65.7174L966.2 107.709L963.225 109.947L958.85 106.261V67.297L963.225 63.2163L965.85 65.7174Z" fill="#312F2A"/>
</g>
<path d="M966.41 107.989L963.436 110.226L963.213 110.394L963 110.214L958.625 106.529L958.5 106.423V67.145L958.611 67.0415L962.986 62.9604L963.228 62.7349L963.467 62.9634L966.092 65.4644L966.199 65.5659L966.2 65.7144L966.55 107.706L966.552 107.882L966.41 107.989Z" stroke="#85827C" stroke-width="0.7"/>
<g filter="url(#filter19_i_352_841)">
<path d="M965.85 69.4576L966.2 103.524L963.225 105.339L958.85 102.349V70.7391L963.225 67.4286L965.85 69.4576Z" fill="#312F2A"/>
</g>
<rect x="964.1" y="73.3523" width="7.89807" height="3.5" rx="0.7" transform="rotate(90 964.1 73.3523)" fill="#FBEDDE"/>
<rect x="964.1" y="82.8298" width="7.6348" height="3.5" rx="0.7" transform="rotate(90 964.1 82.8298)" fill="#FBEDDE"/>
<rect x="964.1" y="92.0444" width="7.89807" height="3.5" rx="0.7" transform="rotate(90 964.1 92.0444)" fill="#FBEDDE"/>
<g filter="url(#filter20_i_352_841)">
<circle cx="963.225" cy="113.106" r="1.36599" transform="rotate(90 963.225 113.106)" fill="#D9D9D9"/>
</g>
<rect x="964.136" y="112.954" width="0.303552" height="1.82131" transform="rotate(90 964.136 112.954)" fill="#3C3B3B"/>
<g filter="url(#filter21_i_352_841)">
<circle cx="963.225" cy="59.6624" r="1.36599" transform="rotate(90 963.225 59.6624)" fill="#D9D9D9"/>
</g>
<rect x="964.136" y="59.5105" width="0.303552" height="1.82131" transform="rotate(90 964.136 59.5105)" fill="#3C3B3B"/>
<rect x="299" y="33" width="104" height="104" rx="13" stroke="#5F5E5E" stroke-width="6"/>
<rect x="304" y="38" width="94" height="94" rx="10" fill="#EBDDC2"/>
<rect x="433" y="33" width="104" height="104" rx="13" stroke="#5F5E5E" stroke-width="6"/>
<rect x="438" y="38" width="94" height="94" rx="10" fill="#EBDDC2"/>
<rect x="567" y="33" width="104" height="104" rx="13" stroke="#5F5E5E" stroke-width="6"/>
<rect x="572" y="38" width="94" height="94" rx="10" fill="#EBDDC2"/>
<defs>
<filter id="filter1_i_352_841" x="12" y="10" width="946" height="146" filterUnits="userSpaceOnUse" color-interpolation-filters="sRGB">
<feFlood flood-opacity="0" result="BackgroundImageFix"/>
<feBlend mode="normal" in="SourceGraphic" in2="BackgroundImageFix" result="shape"/>
<feColorMatrix in="SourceAlpha" type="matrix" values="0 0 0 0 0 0 0 0 0 0 0 0 0 0 0 0 0 0 127 0" result="hardAlpha"/>
<feOffset/>
<feGaussianBlur stdDeviation="20.5"/>
<feComposite in2="hardAlpha" operator="arithmetic" k2="-1" k3="1"/>
<feColorMatrix type="matrix" values="0 0 0 0 0 0 0 0 0 0 0 0 0 0 0 0 0 0 0.42 0"/>
<feBlend mode="normal" in2="shape" result="effect1_innerShadow_352_841"/>
</filter>
<filter id="filter2_i_352_841" x="435" y="0.000244141" width="99.5752" height="15.05" filterUnits="userSpaceOnUse" color-interpolation-filters="sRGB">
<feFlood flood-opacity="0" result="BackgroundImageFix"/>
<feBlend mode="normal" in="SourceGraphic" in2="BackgroundImageFix" result="shape"/>
<feColorMatrix in="SourceAlpha" type="matrix" values="0 0 0 0 0 0 0 0 0 0 0 0 0 0 0 0 0 0 127 0" result="hardAlpha"/>
<feOffset/>
<feGaussianBlur stdDeviation="1.05"/>
<feComposite in2="hardAlpha" operator="arithmetic" k2="-1" k3="1"/>
<feColorMatrix type="matrix" values="0 0 0 0 0 0 0 0 0 0 0 0 0 0 0 0 0 0 0.5 0"/>
<feBlend mode="normal" in2="shape" result="effect1_innerShadow_352_841"/>
</filter>
<filter id="filter3_i_352_841" x="452.778" y="1.39844" width="64.2656" height="10.502" filterUnits="userSpaceOnUse" color-interpolation-filters="sRGB">
<feFlood flood-opacity="0" result="BackgroundImageFix"/>
<feBlend mode="normal" in="SourceGraphic" in2="BackgroundImageFix" result="shape"/>
<feColorMatrix in="SourceAlpha" type="matrix" values="0 0 0 0 0 0 0 0 0 0 0 0 0 0 0 0 0 0 127 0" result="hardAlpha"/>
<feOffset dy="-1.75"/>
<feGaussianBlur stdDeviation="2.1"/>
<feComposite in2="hardAlpha" operator="arithmetic" k2="-1" k3="1"/>
<feColorMatrix type="matrix" values="0 0 0 0 0 0 0 0 0 0 0 0 0 0 0 0 0 0 0.57 0"/>
<feBlend mode="normal" in2="shape" result="effect1_innerShadow_352_841"/>
</filter>
<filter id="filter4_i_352_841" x="459.501" y="2.10034" width="50.4004" height="9.09985" filterUnits="userSpaceOnUse" color-interpolation-filters="sRGB">
<feFlood flood-opacity="0" result="BackgroundImageFix"/>
<feBlend mode="normal" in="SourceGraphic" in2="BackgroundImageFix" result="shape"/>
<feColorMatrix in="SourceAlpha" type="matrix" values="0 0 0 0 0 0 0 0 0 0 0 0 0 0 0 0 0 0 127 0" result="hardAlpha"/>
<feOffset dy="-1.75"/>
<feGaussianBlur stdDeviation="2.1"/>
<feComposite in2="hardAlpha" operator="arithmetic" k2="-1" k3="1"/>
<feColorMatrix type="matrix" values="0 0 0 0 0 0 0 0 0 0 0 0 0 0 0 0 0 0 0.57 0"/>
<feBlend mode="normal" in2="shape" result="effect1_innerShadow_352_841"/>
</filter>
<filter id="filter5_i_352_841" x="518.65" y="5.25024" width="3.15039" height="3.1499" filterUnits="userSpaceOnUse" color-interpolation-filters="sRGB">
<feFlood flood-opacity="0" result="BackgroundImageFix"/>
<feBlend mode="normal" in="SourceGraphic" in2="BackgroundImageFix" result="shape"/>
<feColorMatrix in="SourceAlpha" type="matrix" values="0 0 0 0 0 0 0 0 0 0 0 0 0 0 0 0 0 0 127 0" result="hardAlpha"/>
<feOffset/>
<feGaussianBlur stdDeviation="0.35"/>
<feComposite in2="hardAlpha" operator="arithmetic" k2="-1" k3="1"/>
<feColorMatrix type="matrix" values="0 0 0 0 0 0 0 0 0 0 0 0 0 0 0 0 0 0 0.6 0"/>
<feBlend mode="normal" in2="shape" result="effect1_innerShadow_352_841"/>
</filter>
<filter id="filter6_i_352_841" x="447.6" y="5.25024" width="3.15039" height="3.1499" filterUnits="userSpaceOnUse" color-interpolation-filters="sRGB">
<feFlood flood-opacity="0" result="BackgroundImageFix"/>
<feBlend mode="normal" in="SourceGraphic" in2="BackgroundImageFix" result="shape"/>
<feColorMatrix in="SourceAlpha" type="matrix" values="0 0 0 0 0 0 0 0 0 0 0 0 0 0 0 0 0 0 127 0" result="hardAlpha"/>
<feOffset/>
<feGaussianBlur stdDeviation="0.35"/>
<feComposite in2="hardAlpha" operator="arithmetic" k2="-1" k3="1"/>
<feColorMatrix type="matrix" values="0 0 0 0 0 0 0 0 0 0 0 0 0 0 0 0 0 0 0.6 0"/>
<feBlend mode="normal" in2="shape" result="effect1_innerShadow_352_841"/>
</filter>
<filter id="filter7_i_352_841" x="435" y="154" width="99.5752" height="15.05" filterUnits="userSpaceOnUse" color-interpolation-filters="sRGB">
<feFlood flood-opacity="0" result="BackgroundImageFix"/>
<feBlend mode="normal" in="SourceGraphic" in2="BackgroundImageFix" result="shape"/>
<feColorMatrix in="SourceAlpha" type="matrix" values="0 0 0 0 0 0 0 0 0 0 0 0 0 0 0 0 0 0 127 0" result="hardAlpha"/>
<feOffset/>
<feGaussianBlur stdDeviation="1.05"/>
<feComposite in2="hardAlpha" operator="arithmetic" k2="-1" k3="1"/>
<feColorMatrix type="matrix" values="0 0 0 0 0 0 0 0 0 0 0 0 0 0 0 0 0 0 0.5 0"/>
<feBlend mode="normal" in2="shape" result="effect1_innerShadow_352_841"/>
</filter>
<filter id="filter8_i_352_841" x="452.778" y="155.399" width="64.2656" height="10.5018" filterUnits="userSpaceOnUse" color-interpolation-filters="sRGB">
<feFlood flood-opacity="0" result="BackgroundImageFix"/>
<feBlend mode="normal" in="SourceGraphic" in2="BackgroundImageFix" result="shape"/>
<feColorMatrix in="SourceAlpha" type="matrix" values="0 0 0 0 0 0 0 0 0 0 0 0 0 0 0 0 0 0 127 0" result="hardAlpha"/>
<feOffset dy="-1.75"/>
<feGaussianBlur stdDeviation="2.1"/>
<feComposite in2="hardAlpha" operator="arithmetic" k2="-1" k3="1"/>
<feColorMatrix type="matrix" values="0 0 0 0 0 0 0 0 0 0 0 0 0 0 0 0 0 0 0.57 0"/>
<feBlend mode="normal" in2="shape" result="effect1_innerShadow_352_841"/>
</filter>
<filter id="filter9_i_352_841" x="459.501" y="156.099" width="50.4004" height="9.09998" filterUnits="userSpaceOnUse" color-interpolation-filters="sRGB">
<feFlood flood-opacity="0" result="BackgroundImageFix"/>
<feBlend mode="normal" in="SourceGraphic" in2="BackgroundImageFix" result="shape"/>
<feColorMatrix in="SourceAlpha" type="matrix" values="0 0 0 0 0 0 0 0 0 0 0 0 0 0 0 0 0 0 127 0" result="hardAlpha"/>
<feOffset dy="-1.75"/>
<feGaussianBlur stdDeviation="2.1"/>
<feComposite in2="hardAlpha" operator="arithmetic" k2="-1" k3="1"/>
<feColorMatrix type="matrix" values="0 0 0 0 0 0 0 0 0 0 0 0 0 0 0 0 0 0 0.57 0"/>
<feBlend mode="normal" in2="shape" result="effect1_innerShadow_352_841"/>
</filter>
<filter id="filter10_i_352_841" x="518.65" y="160.65" width="3.15039" height="3.15002" filterUnits="userSpaceOnUse" color-interpolation-filters="sRGB">
<feFlood flood-opacity="0" result="BackgroundImageFix"/>
<feBlend mode="normal" in="SourceGraphic" in2="BackgroundImageFix" result="shape"/>
<feColorMatrix in="SourceAlpha" type="matrix" values="0 0 0 0 0 0 0 0 0 0 0 0 0 0 0 0 0 0 127 0" result="hardAlpha"/>
<feOffset/>
<feGaussianBlur stdDeviation="0.35"/>
<feComposite in2="hardAlpha" operator="arithmetic" k2="-1" k3="1"/>
<feColorMatrix type="matrix" values="0 0 0 0 0 0 0 0 0 0 0 0 0 0 0 0 0 0 0.6 0"/>
<feBlend mode="normal" in2="shape" result="effect1_innerShadow_352_841"/>
</filter>
<filter id="filter11_i_352_841" x="447.6" y="160.65" width="3.15039" height="3.15002" filterUnits="userSpaceOnUse" color-interpolation-filters="sRGB">
<feFlood flood-opacity="0" result="BackgroundImageFix"/>
<feBlend mode="normal" in="SourceGraphic" in2="BackgroundImageFix" result="shape"/>
<feColorMatrix in="SourceAlpha" type="matrix" values="0 0 0 0 0 0 0 0 0 0 0 0 0 0 0 0 0 0 127 0" result="hardAlpha"/>
<feOffset/>
<feGaussianBlur stdDeviation="0.35"/>
<feComposite in2="hardAlpha" operator="arithmetic" k2="-1" k3="1"/>
<feColorMatrix type="matrix" values="0 0 0 0 0 0 0 0 0 0 0 0 0 0 0 0 0 0 0.6 0"/>
<feBlend mode="normal" in2="shape" result="effect1_innerShadow_352_841"/>
</filter>
<filter id="filter12_i_352_841" x="0" y="51" width="15.0498" height="74.9" filterUnits="userSpaceOnUse" color-interpolation-filters="sRGB">
<feFlood flood-opacity="0" result="BackgroundImageFix"/>
<feBlend mode="normal" in="SourceGraphic" in2="BackgroundImageFix" result="shape"/>
<feColorMatrix in="SourceAlpha" type="matrix" values="0 0 0 0 0 0 0 0 0 0 0 0 0 0 0 0 0 0 127 0" result="hardAlpha"/>
<feOffset/>
<feGaussianBlur stdDeviation="1.05"/>
<feComposite in2="hardAlpha" operator="arithmetic" k2="-1" k3="1"/>
<feColorMatrix type="matrix" values="0 0 0 0 0 0 0 0 0 0 0 0 0 0 0 0 0 0 0.5 0"/>
<feBlend mode="normal" in2="shape" result="effect1_innerShadow_352_841"/>
</filter>
<filter id="filter13_i_352_841" x="3.14648" y="62.5043" width="8.75293" height="50.3368" filterUnits="userSpaceOnUse" color-interpolation-filters="sRGB">
<feFlood flood-opacity="0" result="BackgroundImageFix"/>
<feBlend mode="normal" in="SourceGraphic" in2="BackgroundImageFix" result="shape"/>
<feColorMatrix in="SourceAlpha" type="matrix" values="0 0 0 0 0 0 0 0 0 0 0 0 0 0 0 0 0 0 127 0" result="hardAlpha"/>
<feOffset dy="-1.75"/>
<feGaussianBlur stdDeviation="2.1"/>
<feComposite in2="hardAlpha" operator="arithmetic" k2="-1" k3="1"/>
<feColorMatrix type="matrix" values="0 0 0 0 0 0 0 0 0 0 0 0 0 0 0 0 0 0 0.57 0"/>
<feBlend mode="normal" in2="shape" result="effect1_innerShadow_352_841"/>
</filter>
<filter id="filter14_i_352_841" x="3.84961" y="67.6786" width="7.34961" height="39.6608" filterUnits="userSpaceOnUse" color-interpolation-filters="sRGB">
<feFlood flood-opacity="0" result="BackgroundImageFix"/>
<feBlend mode="normal" in="SourceGraphic" in2="BackgroundImageFix" result="shape"/>
<feColorMatrix in="SourceAlpha" type="matrix" values="0 0 0 0 0 0 0 0 0 0 0 0 0 0 0 0 0 0 127 0" result="hardAlpha"/>
<feOffset dy="-1.75"/>
<feGaussianBlur stdDeviation="2.1"/>
<feComposite in2="hardAlpha" operator="arithmetic" k2="-1" k3="1"/>
<feColorMatrix type="matrix" values="0 0 0 0 0 0 0 0 0 0 0 0 0 0 0 0 0 0 0.57 0"/>
<feBlend mode="normal" in2="shape" result="effect1_innerShadow_352_841"/>
</filter>
<filter id="filter15_i_352_841" x="5.45898" y="113.74" width="2.73242" height="2.73193" filterUnits="userSpaceOnUse" color-interpolation-filters="sRGB">
<feFlood flood-opacity="0" result="BackgroundImageFix"/>
<feBlend mode="normal" in="SourceGraphic" in2="BackgroundImageFix" result="shape"/>
<feColorMatrix in="SourceAlpha" type="matrix" values="0 0 0 0 0 0 0 0 0 0 0 0 0 0 0 0 0 0 127 0" result="hardAlpha"/>
<feOffset/>
<feGaussianBlur stdDeviation="0.35"/>
<feComposite in2="hardAlpha" operator="arithmetic" k2="-1" k3="1"/>
<feColorMatrix type="matrix" values="0 0 0 0 0 0 0 0 0 0 0 0 0 0 0 0 0 0 0.6 0"/>
<feBlend mode="normal" in2="shape" result="effect1_innerShadow_352_841"/>
</filter>
<filter id="filter16_i_352_841" x="5.45898" y="60.2964" width="2.73242" height="2.73193" filterUnits="userSpaceOnUse" color-interpolation-filters="sRGB">
<feFlood flood-opacity="0" result="BackgroundImageFix"/>
<feBlend mode="normal" in="SourceGraphic" in2="BackgroundImageFix" result="shape"/>
<feColorMatrix in="SourceAlpha" type="matrix" values="0 0 0 0 0 0 0 0 0 0 0 0 0 0 0 0 0 0 127 0" result="hardAlpha"/>
<feOffset/>
<feGaussianBlur stdDeviation="0.35"/>
<feComposite in2="hardAlpha" operator="arithmetic" k2="-1" k3="1"/>
<feColorMatrix type="matrix" values="0 0 0 0 0 0 0 0 0 0 0 0 0 0 0 0 0 0 0.6 0"/>
<feBlend mode="normal" in2="shape" result="effect1_innerShadow_352_841"/>
</filter>
<filter id="filter17_i_352_841" x="955" y="49" width="15.0498" height="74.9" filterUnits="userSpaceOnUse" color-interpolation-filters="sRGB">
<feFlood flood-opacity="0" result="BackgroundImageFix"/>
<feBlend mode="normal" in="SourceGraphic" in2="BackgroundImageFix" result="shape"/>
<feColorMatrix in="SourceAlpha" type="matrix" values="0 0 0 0 0 0 0 0 0 0 0 0 0 0 0 0 0 0 127 0" result="hardAlpha"/>
<feOffset/>
<feGaussianBlur stdDeviation="1.05"/>
<feComposite in2="hardAlpha" operator="arithmetic" k2="-1" k3="1"/>
<feColorMatrix type="matrix" values="0 0 0 0 0 0 0 0 0 0 0 0 0 0 0 0 0 0 0.5 0"/>
<feBlend mode="normal" in2="shape" result="effect1_innerShadow_352_841"/>
</filter>
<filter id="filter18_i_352_841" x="958.15" y="60.5043" width="8.75293" height="50.3368" filterUnits="userSpaceOnUse" color-interpolation-filters="sRGB">
<feFlood flood-opacity="0" result="BackgroundImageFix"/>
<feBlend mode="normal" in="SourceGraphic" in2="BackgroundImageFix" result="shape"/>
<feColorMatrix in="SourceAlpha" type="matrix" values="0 0 0 0 0 0 0 0 0 0 0 0 0 0 0 0 0 0 127 0" result="hardAlpha"/>
<feOffset dy="-1.75"/>
<feGaussianBlur stdDeviation="2.1"/>
<feComposite in2="hardAlpha" operator="arithmetic" k2="-1" k3="1"/>
<feColorMatrix type="matrix" values="0 0 0 0 0 0 0 0 0 0 0 0 0 0 0 0 0 0 0.57 0"/>
<feBlend mode="normal" in2="shape" result="effect1_innerShadow_352_841"/>
</filter>
<filter id="filter19_i_352_841" x="958.851" y="65.6786" width="7.34961" height="39.6608" filterUnits="userSpaceOnUse" color-interpolation-filters="sRGB">
<feFlood flood-opacity="0" result="BackgroundImageFix"/>
<feBlend mode="normal" in="SourceGraphic" in2="BackgroundImageFix" result="shape"/>
<feColorMatrix in="SourceAlpha" type="matrix" values="0 0 0 0 0 0 0 0 0 0 0 0 0 0 0 0 0 0 127 0" result="hardAlpha"/>
<feOffset dy="-1.75"/>
<feGaussianBlur stdDeviation="2.1"/>
<feComposite in2="hardAlpha" operator="arithmetic" k2="-1" k3="1"/>
<feColorMatrix type="matrix" values="0 0 0 0 0 0 0 0 0 0 0 0 0 0 0 0 0 0 0.57 0"/>
<feBlend mode="normal" in2="shape" result="effect1_innerShadow_352_841"/>
</filter>
<filter id="filter20_i_352_841" x="961.858" y="111.74" width="2.73242" height="2.73193" filterUnits="userSpaceOnUse" color-interpolation-filters="sRGB">
<feFlood flood-opacity="0" result="BackgroundImageFix"/>
<feBlend mode="normal" in="SourceGraphic" in2="BackgroundImageFix" result="shape"/>
<feColorMatrix in="SourceAlpha" type="matrix" values="0 0 0 0 0 0 0 0 0 0 0 0 0 0 0 0 0 0 127 0" result="hardAlpha"/>
<feOffset/>
<feGaussianBlur stdDeviation="0.35"/>
<feComposite in2="hardAlpha" operator="arithmetic" k2="-1" k3="1"/>
<feColorMatrix type="matrix" values="0 0 0 0 0 0 0 0 0 0 0 0 0 0 0 0 0 0 0.6 0"/>
<feBlend mode="normal" in2="shape" result="effect1_innerShadow_352_841"/>
</filter>
<filter id="filter21_i_352_841" x="961.858" y="58.2964" width="2.73242" height="2.73193" filterUnits="userSpaceOnUse" color-interpolation-filters="sRGB">
<feFlood flood-opacity="0" result="BackgroundImageFix"/>
<feBlend mode="normal" in="SourceGraphic" in2="BackgroundImageFix" result="shape"/>
<feColorMatrix in="SourceAlpha" type="matrix" values="0 0 0 0 0 0 0 0 0 0 0 0 0 0 0 0 0 0 127 0" result="hardAlpha"/>
<feOffset/>
<feGaussianBlur stdDeviation="0.35"/>
<feComposite in2="hardAlpha" operator="arithmetic" k2="-1" k3="1"/>
<feColorMatrix type="matrix" values="0 0 0 0 0 0 0 0 0 0 0 0 0 0 0 0 0 0 0.6 0"/>
<feBlend mode="normal" in2="shape" result="effect1_innerShadow_352_841"/>
</filter>
<radialGradient id="paint0_radial_352_841" cx="0" cy="0" r="1" gradientUnits="userSpaceOnUse" gradientTransform="translate(491.919 84.2086) scale(633.574 109.769)">
<stop stop-color="#142D5E"/>
<stop offset="1" stop-color="#020E25"/>
</radialGradient>
<radialGradient id="paint1_radial_352_841" cx="0" cy="0" r="1" gradientUnits="userSpaceOnUse" gradientTransform="translate(491.748 83.1813) scale(617.898 95.3941)">
<stop stop-color="#142D5E"/>
<stop offset="1" stop-color="#020E25"/>
</radialGradient>
</defs>
</svg>
