<svg width="182" height="163" viewBox="0 0 182 163" fill="none" xmlns="http://www.w3.org/2000/svg">
<rect x="4.2" y="5.10039" width="172.6" height="152.6" rx="30.8" fill="#D9D9D9"/>
<rect x="4.2" y="5.10039" width="172.6" height="152.6" rx="30.8" fill="url(#paint0_radial_352_755)"/>
<rect x="4.2" y="5.10039" width="172.6" height="152.6" rx="30.8" stroke="#FBEDDE" stroke-width="8.4"/>
<rect x="12.6998" y="13.4" width="155.2" height="135.2" rx="23.8" fill="#D9D9D9"/>
<rect x="12.6998" y="13.4" width="155.2" height="135.2" rx="23.8" fill="url(#paint1_radial_352_755)"/>
<rect x="12.6998" y="13.4" width="155.2" height="135.2" rx="23.8" stroke="#FF8A00" stroke-width="2.8"/>
<g filter="url(#filter1_i_352_755)">
<path d="M0.299805 57.1933V103.807L14.4361 112V49L0.299805 57.1933Z" fill="#DBD7D8"/>
</g>
<path d="M0.441406 103.726L14.2949 111.755V49.2451L0.441406 57.2744V103.726Z" stroke="#A0A0A0" stroke-width="0.28224"/>
<g filter="url(#filter2_i_352_755)">
<path d="M4.24477 63.0615L3.91602 98.3813L6.7104 100.264L10.8198 97.1634V64.3901L6.7104 60.9578L4.24477 63.0615Z" fill="#312F2A"/>
</g>
<path d="M3.75879 98.615L6.55273 100.498L6.71973 100.61L6.88086 100.489L10.9902 97.3884L11.1016 97.3044V64.2585L11.001 64.1736L6.8916 60.741L6.70801 60.5886L6.52734 60.7429L4.06152 62.8464L3.96387 62.9304L3.96289 63.0583L3.63379 98.3787L3.63281 98.531L3.75879 98.615Z" stroke="#85827C" stroke-width="0.56448"/>
<g filter="url(#filter3_i_352_755)">
<path d="M4.24477 66.2073L3.91602 94.8611L6.7104 96.3881L10.8198 93.8731V67.2852L6.7104 64.5006L4.24477 66.2073Z" fill="#312F2A"/>
</g>
<rect width="6.64323" height="3.28752" rx="0.56448" transform="matrix(0 1 1 0 5.88867 69.4829)" fill="#FF8A00"/>
<rect width="6.42179" height="3.28752" rx="0.56448" transform="matrix(0 1 1 0 5.88867 77.4546)" fill="#FF8A00"/>
<rect width="6.64323" height="3.28752" rx="0.56448" transform="matrix(0 1 1 0 5.88867 85.2057)" fill="#FF8A00"/>
<g filter="url(#filter4_i_352_755)">
<circle cx="1.21416" cy="1.21416" r="1.21416" transform="matrix(0 1 1 0 5.49512 101.707)" fill="#D9D9D9"/>
</g>
<rect width="0.269813" height="1.61888" transform="matrix(0 1 1 0 5.90137 102.786)" fill="#3C3B3B"/>
<g filter="url(#filter5_i_352_755)">
<circle cx="1.21416" cy="1.21416" r="1.21416" transform="matrix(0 1 1 0 5.49512 56.7539)" fill="#D9D9D9"/>
</g>
<rect width="0.269813" height="1.61888" transform="matrix(0 1 1 0 5.90137 57.8328)" fill="#3C3B3B"/>
<g filter="url(#filter6_i_352_755)">
<path d="M181.436 57.1933V103.807L166.299 112V49L181.436 57.1933Z" fill="#DBD7D8"/>
</g>
<path d="M181.294 103.723L166.44 111.764V49.2363L181.294 57.2773V103.723Z" stroke="#A0A0A0" stroke-width="0.28224"/>
<g filter="url(#filter7_i_352_755)">
<path d="M177.212 63.0615L177.564 98.3813L174.572 100.264L170.172 97.1634V64.3901L174.572 60.9578L177.212 63.0615Z" fill="#312F2A"/>
</g>
<path d="M177.715 98.6199L174.723 100.503L174.563 100.602L174.41 100.494L170.01 97.3943L169.89 97.3093V64.2527L169.999 64.1677L174.398 60.7351L174.574 60.5984L174.748 60.7371L177.389 62.8406L177.493 62.9246L177.495 63.0583L177.847 98.3787L177.849 98.5359L177.715 98.6199Z" stroke="#85827C" stroke-width="0.56448"/>
<g filter="url(#filter8_i_352_755)">
<path d="M177.212 66.2073L177.564 94.8611L174.572 96.3881L170.172 93.8731V67.2852L174.572 64.5006L177.212 66.2073Z" fill="#312F2A"/>
</g>
<rect x="175.452" y="69.4829" width="6.64323" height="3.52005" rx="0.56448" transform="rotate(90 175.452 69.4829)" fill="#FF8A00"/>
<rect x="175.452" y="77.4546" width="6.42179" height="3.52005" rx="0.56448" transform="rotate(90 175.452 77.4546)" fill="#FF8A00"/>
<rect x="175.452" y="85.2058" width="6.64323" height="3.52005" rx="0.56448" transform="rotate(90 175.452 85.2058)" fill="#FF8A00"/>
<g filter="url(#filter9_i_352_755)">
<circle cx="174.573" cy="102.921" r="1.25637" transform="rotate(90 174.573 102.921)" fill="#D9D9D9"/>
</g>
<rect x="175.409" y="102.782" width="0.279193" height="1.67516" transform="rotate(90 175.409 102.782)" fill="#3C3B3B"/>
<g filter="url(#filter10_i_352_755)">
<circle cx="174.573" cy="57.968" r="1.25637" transform="rotate(90 174.573 57.968)" fill="#D9D9D9"/>
</g>
<rect x="175.409" y="57.828" width="0.279193" height="1.67516" transform="rotate(90 175.409 57.828)" fill="#3C3B3B"/>
<g filter="url(#filter11_i_352_755)">
<path d="M113.106 163H66.4931L58.2998 147H121.3L113.106 163Z" fill="#DBD7D8"/>
</g>
<path d="M66.5801 162.858L58.5312 147.142H121.068L113.02 162.858H66.5801Z" stroke="#A0A0A0" stroke-width="0.28224"/>
<g filter="url(#filter12_i_352_755)">
<path d="M107.238 158.535L71.9182 158.907L70.036 155.745L73.1362 151.094H105.909L109.342 155.745L107.238 158.535Z" fill="#312F2A"/>
</g>
<path d="M71.6758 159.052L69.7939 155.889L69.7021 155.737L69.8008 155.588L72.9014 150.937L72.9854 150.811H106.052L106.137 150.926L109.569 155.577L109.694 155.746L109.567 155.914L107.464 158.705L107.38 158.816L107.241 158.818L71.9209 159.19L71.7588 159.192L71.6758 159.052Z" stroke="#85827C" stroke-width="0.56448"/>
<g filter="url(#filter13_i_352_755)">
<path d="M104.092 158.535L75.4383 158.907L73.9113 155.745L76.4264 151.094H103.014L105.799 155.745L104.092 158.535Z" fill="#312F2A"/>
</g>
<rect x="100.816" y="156.674" width="6.64323" height="3.72093" rx="0.56448" transform="rotate(180 100.816 156.674)" fill="#FF8A00"/>
<rect x="92.8447" y="156.674" width="6.42179" height="3.72093" rx="0.56448" transform="rotate(180 92.8447 156.674)" fill="#FF8A00"/>
<rect x="85.0938" y="156.674" width="6.64323" height="3.72093" rx="0.56448" transform="rotate(180 85.0938 156.674)" fill="#FF8A00"/>
<g filter="url(#filter14_i_352_755)">
<circle cx="67.3782" cy="155.746" r="1.29172" transform="rotate(180 67.3782 155.746)" fill="#D9D9D9"/>
</g>
<rect x="67.5225" y="156.605" width="0.287048" height="1.72229" transform="rotate(180 67.5225 156.605)" fill="#3C3B3B"/>
<g filter="url(#filter15_i_352_755)">
<circle cx="112.331" cy="155.746" r="1.29172" transform="rotate(180 112.331 155.746)" fill="#D9D9D9"/>
</g>
<rect x="112.476" y="156.605" width="0.287048" height="1.72229" transform="rotate(180 112.476 156.605)" fill="#3C3B3B"/>
<g filter="url(#filter16_i_352_755)">
<path d="M113.106 0H66.4931L58.2998 15.1362H121.3L113.106 0Z" fill="#DBD7D8"/>
</g>
<path d="M66.5771 0.141602L58.5361 14.9951H121.063L113.022 0.141602H66.5771Z" stroke="#A0A0A0" stroke-width="0.28224"/>
<g filter="url(#filter17_i_352_755)">
<path d="M107.238 4.22347L71.9182 3.87146L70.036 6.86351L73.1362 11.2636H105.909L109.342 6.86351L107.238 4.22347Z" fill="#312F2A"/>
</g>
<path d="M71.6797 3.72107L69.7969 6.71326L69.6973 6.87244L69.8057 7.02576L72.9053 11.4261L72.9902 11.5463H106.047L106.132 11.4369L109.564 7.03748L109.701 6.86169L109.562 6.68787L107.459 4.04724L107.375 3.94275L107.241 3.9408L71.9209 3.58923L71.7637 3.58728L71.6797 3.72107Z" stroke="#85827C" stroke-width="0.56448"/>
<g filter="url(#filter18_i_352_755)">
<path d="M104.092 4.22347L75.4383 3.87146L73.9113 6.86351L76.4264 11.2636H103.014L105.799 6.86351L104.092 4.22347Z" fill="#312F2A"/>
</g>
<rect width="6.64323" height="3.52005" rx="0.56448" transform="matrix(-1 0 0 1 100.816 5.98413)" fill="#FF8A00"/>
<rect width="6.42179" height="3.52005" rx="0.56448" transform="matrix(-1 0 0 1 92.8447 5.98413)" fill="#FF8A00"/>
<rect width="6.64323" height="3.52005" rx="0.56448" transform="matrix(-1 0 0 1 85.0938 5.98401)" fill="#FF8A00"/>
<g filter="url(#filter19_i_352_755)">
<circle cx="1.25637" cy="1.25637" r="1.25637" transform="matrix(-1 0 0 1 68.6348 5.6062)" fill="#D9D9D9"/>
</g>
<rect width="0.279193" height="1.67516" transform="matrix(-1 0 0 1 67.5176 6.02637)" fill="#3C3B3B"/>
<g filter="url(#filter20_i_352_755)">
<circle cx="1.25637" cy="1.25637" r="1.25637" transform="matrix(-1 0 0 1 113.588 5.60645)" fill="#D9D9D9"/>
</g>
<rect width="0.279193" height="1.67516" transform="matrix(-1 0 0 1 112.472 6.02637)" fill="#3C3B3B"/>
<g filter="url(#filter21_i_352_755)">
<path d="M0.299805 56.2929V102.906L14.4361 111.1V48.0996L0.299805 56.2929Z" fill="#DBD7D8"/>
</g>
<path d="M0.441406 102.825L14.2949 110.854V48.3447L0.441406 56.374V102.825Z" stroke="#A0A0A0" stroke-width="0.28224"/>
<g filter="url(#filter22_i_352_755)">
<path d="M4.24477 62.1611L3.91602 97.4809L6.7104 99.3632L10.8198 96.263V63.4897L6.7104 60.0574L4.24477 62.1611Z" fill="#312F2A"/>
</g>
<path d="M3.75879 97.7146L6.55273 99.5974L6.71973 99.7097L6.88086 99.5886L10.9902 96.488L11.1016 96.4041V63.3582L11.001 63.2732L6.8916 59.8406L6.70801 59.6882L6.52734 59.8425L4.06152 61.946L3.96387 62.03L3.96289 62.158L3.63379 97.4783L3.63281 97.6306L3.75879 97.7146Z" stroke="#85827C" stroke-width="0.56448"/>
<g filter="url(#filter23_i_352_755)">
<path d="M4.24477 65.3069L3.91602 93.9607L6.7104 95.4877L10.8198 92.9727V66.3848L6.7104 63.6002L4.24477 65.3069Z" fill="#312F2A"/>
</g>
<rect width="6.64323" height="3.28752" rx="0.56448" transform="matrix(0 1 1 0 5.88867 68.5825)" fill="#FF8A00"/>
<rect width="6.42179" height="3.28752" rx="0.56448" transform="matrix(0 1 1 0 5.88867 76.5542)" fill="#FF8A00"/>
<rect width="6.64323" height="3.28752" rx="0.56448" transform="matrix(0 1 1 0 5.88867 84.3053)" fill="#FF8A00"/>
<g filter="url(#filter24_i_352_755)">
<circle cx="1.21416" cy="1.21416" r="1.21416" transform="matrix(0 1 1 0 5.49512 100.807)" fill="#D9D9D9"/>
</g>
<rect width="0.269813" height="1.61888" transform="matrix(0 1 1 0 5.90137 101.886)" fill="#3C3B3B"/>
<g filter="url(#filter25_i_352_755)">
<circle cx="1.21416" cy="1.21416" r="1.21416" transform="matrix(0 1 1 0 5.49512 55.8535)" fill="#D9D9D9"/>
</g>
<rect width="0.269813" height="1.61888" transform="matrix(0 1 1 0 5.90137 56.9324)" fill="#3C3B3B"/>
<defs>
<filter id="filter1_i_352_755" x="0.299805" y="49" width="14.1367" height="63" filterUnits="userSpaceOnUse" color-interpolation-filters="sRGB">
<feFlood flood-opacity="0" result="BackgroundImageFix"/>
<feBlend mode="normal" in="SourceGraphic" in2="BackgroundImageFix" result="shape"/>
<feColorMatrix in="SourceAlpha" type="matrix" values="0 0 0 0 0 0 0 0 0 0 0 0 0 0 0 0 0 0 127 0" result="hardAlpha"/>
<feOffset/>
<feGaussianBlur stdDeviation="0.84672"/>
<feComposite in2="hardAlpha" operator="arithmetic" k2="-1" k3="1"/>
<feColorMatrix type="matrix" values="0 0 0 0 0 0 0 0 0 0 0 0 0 0 0 0 0 0 0.5 0"/>
<feBlend mode="normal" in2="shape" result="effect1_innerShadow_352_755"/>
</filter>
<filter id="filter2_i_352_755" x="3.34863" y="58.8078" width="8.03613" height="42.1489" filterUnits="userSpaceOnUse" color-interpolation-filters="sRGB">
<feFlood flood-opacity="0" result="BackgroundImageFix"/>
<feBlend mode="normal" in="SourceGraphic" in2="BackgroundImageFix" result="shape"/>
<feColorMatrix in="SourceAlpha" type="matrix" values="0 0 0 0 0 0 0 0 0 0 0 0 0 0 0 0 0 0 127 0" result="hardAlpha"/>
<feOffset dy="-1.4112"/>
<feGaussianBlur stdDeviation="1.69344"/>
<feComposite in2="hardAlpha" operator="arithmetic" k2="-1" k3="1"/>
<feColorMatrix type="matrix" values="0 0 0 0 0 0 0 0 0 0 0 0 0 0 0 0 0 0 0.57 0"/>
<feBlend mode="normal" in2="shape" result="effect1_innerShadow_352_755"/>
</filter>
<filter id="filter3_i_352_755" x="3.91602" y="63.0894" width="6.90332" height="33.2988" filterUnits="userSpaceOnUse" color-interpolation-filters="sRGB">
<feFlood flood-opacity="0" result="BackgroundImageFix"/>
<feBlend mode="normal" in="SourceGraphic" in2="BackgroundImageFix" result="shape"/>
<feColorMatrix in="SourceAlpha" type="matrix" values="0 0 0 0 0 0 0 0 0 0 0 0 0 0 0 0 0 0 127 0" result="hardAlpha"/>
<feOffset dy="-1.4112"/>
<feGaussianBlur stdDeviation="1.69344"/>
<feComposite in2="hardAlpha" operator="arithmetic" k2="-1" k3="1"/>
<feColorMatrix type="matrix" values="0 0 0 0 0 0 0 0 0 0 0 0 0 0 0 0 0 0 0.57 0"/>
<feBlend mode="normal" in2="shape" result="effect1_innerShadow_352_755"/>
</filter>
<filter id="filter4_i_352_755" x="5.49512" y="101.707" width="2.42871" height="2.42834" filterUnits="userSpaceOnUse" color-interpolation-filters="sRGB">
<feFlood flood-opacity="0" result="BackgroundImageFix"/>
<feBlend mode="normal" in="SourceGraphic" in2="BackgroundImageFix" result="shape"/>
<feColorMatrix in="SourceAlpha" type="matrix" values="0 0 0 0 0 0 0 0 0 0 0 0 0 0 0 0 0 0 127 0" result="hardAlpha"/>
<feOffset/>
<feGaussianBlur stdDeviation="0.28224"/>
<feComposite in2="hardAlpha" operator="arithmetic" k2="-1" k3="1"/>
<feColorMatrix type="matrix" values="0 0 0 0 0 0 0 0 0 0 0 0 0 0 0 0 0 0 0.6 0"/>
<feBlend mode="normal" in2="shape" result="effect1_innerShadow_352_755"/>
</filter>
<filter id="filter5_i_352_755" x="5.49512" y="56.7539" width="2.42871" height="2.42847" filterUnits="userSpaceOnUse" color-interpolation-filters="sRGB">
<feFlood flood-opacity="0" result="BackgroundImageFix"/>
<feBlend mode="normal" in="SourceGraphic" in2="BackgroundImageFix" result="shape"/>
<feColorMatrix in="SourceAlpha" type="matrix" values="0 0 0 0 0 0 0 0 0 0 0 0 0 0 0 0 0 0 127 0" result="hardAlpha"/>
<feOffset/>
<feGaussianBlur stdDeviation="0.28224"/>
<feComposite in2="hardAlpha" operator="arithmetic" k2="-1" k3="1"/>
<feColorMatrix type="matrix" values="0 0 0 0 0 0 0 0 0 0 0 0 0 0 0 0 0 0 0.6 0"/>
<feBlend mode="normal" in2="shape" result="effect1_innerShadow_352_755"/>
</filter>
<filter id="filter6_i_352_755" x="166.299" y="49" width="15.1367" height="63" filterUnits="userSpaceOnUse" color-interpolation-filters="sRGB">
<feFlood flood-opacity="0" result="BackgroundImageFix"/>
<feBlend mode="normal" in="SourceGraphic" in2="BackgroundImageFix" result="shape"/>
<feColorMatrix in="SourceAlpha" type="matrix" values="0 0 0 0 0 0 0 0 0 0 0 0 0 0 0 0 0 0 127 0" result="hardAlpha"/>
<feOffset/>
<feGaussianBlur stdDeviation="0.84672"/>
<feComposite in2="hardAlpha" operator="arithmetic" k2="-1" k3="1"/>
<feColorMatrix type="matrix" values="0 0 0 0 0 0 0 0 0 0 0 0 0 0 0 0 0 0 0.5 0"/>
<feBlend mode="normal" in2="shape" result="effect1_innerShadow_352_755"/>
</filter>
<filter id="filter7_i_352_755" x="169.607" y="58.8278" width="8.52441" height="42.1138" filterUnits="userSpaceOnUse" color-interpolation-filters="sRGB">
<feFlood flood-opacity="0" result="BackgroundImageFix"/>
<feBlend mode="normal" in="SourceGraphic" in2="BackgroundImageFix" result="shape"/>
<feColorMatrix in="SourceAlpha" type="matrix" values="0 0 0 0 0 0 0 0 0 0 0 0 0 0 0 0 0 0 127 0" result="hardAlpha"/>
<feOffset dy="-1.4112"/>
<feGaussianBlur stdDeviation="1.69344"/>
<feComposite in2="hardAlpha" operator="arithmetic" k2="-1" k3="1"/>
<feColorMatrix type="matrix" values="0 0 0 0 0 0 0 0 0 0 0 0 0 0 0 0 0 0 0.57 0"/>
<feBlend mode="normal" in2="shape" result="effect1_innerShadow_352_755"/>
</filter>
<filter id="filter8_i_352_755" x="170.172" y="63.0894" width="7.39258" height="33.2988" filterUnits="userSpaceOnUse" color-interpolation-filters="sRGB">
<feFlood flood-opacity="0" result="BackgroundImageFix"/>
<feBlend mode="normal" in="SourceGraphic" in2="BackgroundImageFix" result="shape"/>
<feColorMatrix in="SourceAlpha" type="matrix" values="0 0 0 0 0 0 0 0 0 0 0 0 0 0 0 0 0 0 127 0" result="hardAlpha"/>
<feOffset dy="-1.4112"/>
<feGaussianBlur stdDeviation="1.69344"/>
<feComposite in2="hardAlpha" operator="arithmetic" k2="-1" k3="1"/>
<feColorMatrix type="matrix" values="0 0 0 0 0 0 0 0 0 0 0 0 0 0 0 0 0 0 0.57 0"/>
<feBlend mode="normal" in2="shape" result="effect1_innerShadow_352_755"/>
</filter>
<filter id="filter9_i_352_755" x="173.316" y="101.665" width="2.5127" height="2.5127" filterUnits="userSpaceOnUse" color-interpolation-filters="sRGB">
<feFlood flood-opacity="0" result="BackgroundImageFix"/>
<feBlend mode="normal" in="SourceGraphic" in2="BackgroundImageFix" result="shape"/>
<feColorMatrix in="SourceAlpha" type="matrix" values="0 0 0 0 0 0 0 0 0 0 0 0 0 0 0 0 0 0 127 0" result="hardAlpha"/>
<feOffset/>
<feGaussianBlur stdDeviation="0.28224"/>
<feComposite in2="hardAlpha" operator="arithmetic" k2="-1" k3="1"/>
<feColorMatrix type="matrix" values="0 0 0 0 0 0 0 0 0 0 0 0 0 0 0 0 0 0 0.6 0"/>
<feBlend mode="normal" in2="shape" result="effect1_innerShadow_352_755"/>
</filter>
<filter id="filter10_i_352_755" x="173.316" y="56.7117" width="2.5127" height="2.51282" filterUnits="userSpaceOnUse" color-interpolation-filters="sRGB">
<feFlood flood-opacity="0" result="BackgroundImageFix"/>
<feBlend mode="normal" in="SourceGraphic" in2="BackgroundImageFix" result="shape"/>
<feColorMatrix in="SourceAlpha" type="matrix" values="0 0 0 0 0 0 0 0 0 0 0 0 0 0 0 0 0 0 127 0" result="hardAlpha"/>
<feOffset/>
<feGaussianBlur stdDeviation="0.28224"/>
<feComposite in2="hardAlpha" operator="arithmetic" k2="-1" k3="1"/>
<feColorMatrix type="matrix" values="0 0 0 0 0 0 0 0 0 0 0 0 0 0 0 0 0 0 0.6 0"/>
<feBlend mode="normal" in2="shape" result="effect1_innerShadow_352_755"/>
</filter>
<filter id="filter11_i_352_755" x="58.2998" y="147" width="63" height="16" filterUnits="userSpaceOnUse" color-interpolation-filters="sRGB">
<feFlood flood-opacity="0" result="BackgroundImageFix"/>
<feBlend mode="normal" in="SourceGraphic" in2="BackgroundImageFix" result="shape"/>
<feColorMatrix in="SourceAlpha" type="matrix" values="0 0 0 0 0 0 0 0 0 0 0 0 0 0 0 0 0 0 127 0" result="hardAlpha"/>
<feOffset/>
<feGaussianBlur stdDeviation="0.84672"/>
<feComposite in2="hardAlpha" operator="arithmetic" k2="-1" k3="1"/>
<feColorMatrix type="matrix" values="0 0 0 0 0 0 0 0 0 0 0 0 0 0 0 0 0 0 0.5 0"/>
<feBlend mode="normal" in2="shape" result="effect1_innerShadow_352_755"/>
</filter>
<filter id="filter12_i_352_755" x="69.3691" y="149.118" width="40.6768" height="10.3575" filterUnits="userSpaceOnUse" color-interpolation-filters="sRGB">
<feFlood flood-opacity="0" result="BackgroundImageFix"/>
<feBlend mode="normal" in="SourceGraphic" in2="BackgroundImageFix" result="shape"/>
<feColorMatrix in="SourceAlpha" type="matrix" values="0 0 0 0 0 0 0 0 0 0 0 0 0 0 0 0 0 0 127 0" result="hardAlpha"/>
<feOffset dy="-1.4112"/>
<feGaussianBlur stdDeviation="1.69344"/>
<feComposite in2="hardAlpha" operator="arithmetic" k2="-1" k3="1"/>
<feColorMatrix type="matrix" values="0 0 0 0 0 0 0 0 0 0 0 0 0 0 0 0 0 0 0.57 0"/>
<feBlend mode="normal" in2="shape" result="effect1_innerShadow_352_755"/>
</filter>
<filter id="filter13_i_352_755" x="73.9111" y="149.682" width="31.8877" height="9.22517" filterUnits="userSpaceOnUse" color-interpolation-filters="sRGB">
<feFlood flood-opacity="0" result="BackgroundImageFix"/>
<feBlend mode="normal" in="SourceGraphic" in2="BackgroundImageFix" result="shape"/>
<feColorMatrix in="SourceAlpha" type="matrix" values="0 0 0 0 0 0 0 0 0 0 0 0 0 0 0 0 0 0 127 0" result="hardAlpha"/>
<feOffset dy="-1.4112"/>
<feGaussianBlur stdDeviation="1.69344"/>
<feComposite in2="hardAlpha" operator="arithmetic" k2="-1" k3="1"/>
<feColorMatrix type="matrix" values="0 0 0 0 0 0 0 0 0 0 0 0 0 0 0 0 0 0 0.57 0"/>
<feBlend mode="normal" in2="shape" result="effect1_innerShadow_352_755"/>
</filter>
<filter id="filter14_i_352_755" x="66.0869" y="154.454" width="2.58301" height="2.58337" filterUnits="userSpaceOnUse" color-interpolation-filters="sRGB">
<feFlood flood-opacity="0" result="BackgroundImageFix"/>
<feBlend mode="normal" in="SourceGraphic" in2="BackgroundImageFix" result="shape"/>
<feColorMatrix in="SourceAlpha" type="matrix" values="0 0 0 0 0 0 0 0 0 0 0 0 0 0 0 0 0 0 127 0" result="hardAlpha"/>
<feOffset/>
<feGaussianBlur stdDeviation="0.28224"/>
<feComposite in2="hardAlpha" operator="arithmetic" k2="-1" k3="1"/>
<feColorMatrix type="matrix" values="0 0 0 0 0 0 0 0 0 0 0 0 0 0 0 0 0 0 0.6 0"/>
<feBlend mode="normal" in2="shape" result="effect1_innerShadow_352_755"/>
</filter>
<filter id="filter15_i_352_755" x="111.04" y="154.454" width="2.58301" height="2.5835" filterUnits="userSpaceOnUse" color-interpolation-filters="sRGB">
<feFlood flood-opacity="0" result="BackgroundImageFix"/>
<feBlend mode="normal" in="SourceGraphic" in2="BackgroundImageFix" result="shape"/>
<feColorMatrix in="SourceAlpha" type="matrix" values="0 0 0 0 0 0 0 0 0 0 0 0 0 0 0 0 0 0 127 0" result="hardAlpha"/>
<feOffset/>
<feGaussianBlur stdDeviation="0.28224"/>
<feComposite in2="hardAlpha" operator="arithmetic" k2="-1" k3="1"/>
<feColorMatrix type="matrix" values="0 0 0 0 0 0 0 0 0 0 0 0 0 0 0 0 0 0 0.6 0"/>
<feBlend mode="normal" in2="shape" result="effect1_innerShadow_352_755"/>
</filter>
<filter id="filter16_i_352_755" x="58.2998" y="0" width="63" height="15.1362" filterUnits="userSpaceOnUse" color-interpolation-filters="sRGB">
<feFlood flood-opacity="0" result="BackgroundImageFix"/>
<feBlend mode="normal" in="SourceGraphic" in2="BackgroundImageFix" result="shape"/>
<feColorMatrix in="SourceAlpha" type="matrix" values="0 0 0 0 0 0 0 0 0 0 0 0 0 0 0 0 0 0 127 0" result="hardAlpha"/>
<feOffset/>
<feGaussianBlur stdDeviation="0.84672"/>
<feComposite in2="hardAlpha" operator="arithmetic" k2="-1" k3="1"/>
<feColorMatrix type="matrix" values="0 0 0 0 0 0 0 0 0 0 0 0 0 0 0 0 0 0 0.5 0"/>
<feBlend mode="normal" in2="shape" result="effect1_innerShadow_352_755"/>
</filter>
<filter id="filter17_i_352_755" x="69.3584" y="1.89275" width="40.7021" height="9.93537" filterUnits="userSpaceOnUse" color-interpolation-filters="sRGB">
<feFlood flood-opacity="0" result="BackgroundImageFix"/>
<feBlend mode="normal" in="SourceGraphic" in2="BackgroundImageFix" result="shape"/>
<feColorMatrix in="SourceAlpha" type="matrix" values="0 0 0 0 0 0 0 0 0 0 0 0 0 0 0 0 0 0 127 0" result="hardAlpha"/>
<feOffset dy="-1.4112"/>
<feGaussianBlur stdDeviation="1.69344"/>
<feComposite in2="hardAlpha" operator="arithmetic" k2="-1" k3="1"/>
<feColorMatrix type="matrix" values="0 0 0 0 0 0 0 0 0 0 0 0 0 0 0 0 0 0 0.57 0"/>
<feBlend mode="normal" in2="shape" result="effect1_innerShadow_352_755"/>
</filter>
<filter id="filter18_i_352_755" x="73.9111" y="2.46026" width="31.8877" height="8.80329" filterUnits="userSpaceOnUse" color-interpolation-filters="sRGB">
<feFlood flood-opacity="0" result="BackgroundImageFix"/>
<feBlend mode="normal" in="SourceGraphic" in2="BackgroundImageFix" result="shape"/>
<feColorMatrix in="SourceAlpha" type="matrix" values="0 0 0 0 0 0 0 0 0 0 0 0 0 0 0 0 0 0 127 0" result="hardAlpha"/>
<feOffset dy="-1.4112"/>
<feGaussianBlur stdDeviation="1.69344"/>
<feComposite in2="hardAlpha" operator="arithmetic" k2="-1" k3="1"/>
<feColorMatrix type="matrix" values="0 0 0 0 0 0 0 0 0 0 0 0 0 0 0 0 0 0 0.57 0"/>
<feBlend mode="normal" in2="shape" result="effect1_innerShadow_352_755"/>
</filter>
<filter id="filter19_i_352_755" x="66.1221" y="5.6062" width="2.5127" height="2.51282" filterUnits="userSpaceOnUse" color-interpolation-filters="sRGB">
<feFlood flood-opacity="0" result="BackgroundImageFix"/>
<feBlend mode="normal" in="SourceGraphic" in2="BackgroundImageFix" result="shape"/>
<feColorMatrix in="SourceAlpha" type="matrix" values="0 0 0 0 0 0 0 0 0 0 0 0 0 0 0 0 0 0 127 0" result="hardAlpha"/>
<feOffset/>
<feGaussianBlur stdDeviation="0.28224"/>
<feComposite in2="hardAlpha" operator="arithmetic" k2="-1" k3="1"/>
<feColorMatrix type="matrix" values="0 0 0 0 0 0 0 0 0 0 0 0 0 0 0 0 0 0 0.6 0"/>
<feBlend mode="normal" in2="shape" result="effect1_innerShadow_352_755"/>
</filter>
<filter id="filter20_i_352_755" x="111.075" y="5.60645" width="2.5127" height="2.5127" filterUnits="userSpaceOnUse" color-interpolation-filters="sRGB">
<feFlood flood-opacity="0" result="BackgroundImageFix"/>
<feBlend mode="normal" in="SourceGraphic" in2="BackgroundImageFix" result="shape"/>
<feColorMatrix in="SourceAlpha" type="matrix" values="0 0 0 0 0 0 0 0 0 0 0 0 0 0 0 0 0 0 127 0" result="hardAlpha"/>
<feOffset/>
<feGaussianBlur stdDeviation="0.28224"/>
<feComposite in2="hardAlpha" operator="arithmetic" k2="-1" k3="1"/>
<feColorMatrix type="matrix" values="0 0 0 0 0 0 0 0 0 0 0 0 0 0 0 0 0 0 0.6 0"/>
<feBlend mode="normal" in2="shape" result="effect1_innerShadow_352_755"/>
</filter>
<filter id="filter21_i_352_755" x="0.299805" y="48.0996" width="14.1367" height="63" filterUnits="userSpaceOnUse" color-interpolation-filters="sRGB">
<feFlood flood-opacity="0" result="BackgroundImageFix"/>
<feBlend mode="normal" in="SourceGraphic" in2="BackgroundImageFix" result="shape"/>
<feColorMatrix in="SourceAlpha" type="matrix" values="0 0 0 0 0 0 0 0 0 0 0 0 0 0 0 0 0 0 127 0" result="hardAlpha"/>
<feOffset/>
<feGaussianBlur stdDeviation="0.84672"/>
<feComposite in2="hardAlpha" operator="arithmetic" k2="-1" k3="1"/>
<feColorMatrix type="matrix" values="0 0 0 0 0 0 0 0 0 0 0 0 0 0 0 0 0 0 0.5 0"/>
<feBlend mode="normal" in2="shape" result="effect1_innerShadow_352_755"/>
</filter>
<filter id="filter22_i_352_755" x="3.34863" y="57.9074" width="8.03613" height="42.1489" filterUnits="userSpaceOnUse" color-interpolation-filters="sRGB">
<feFlood flood-opacity="0" result="BackgroundImageFix"/>
<feBlend mode="normal" in="SourceGraphic" in2="BackgroundImageFix" result="shape"/>
<feColorMatrix in="SourceAlpha" type="matrix" values="0 0 0 0 0 0 0 0 0 0 0 0 0 0 0 0 0 0 127 0" result="hardAlpha"/>
<feOffset dy="-1.4112"/>
<feGaussianBlur stdDeviation="1.69344"/>
<feComposite in2="hardAlpha" operator="arithmetic" k2="-1" k3="1"/>
<feColorMatrix type="matrix" values="0 0 0 0 0 0 0 0 0 0 0 0 0 0 0 0 0 0 0.57 0"/>
<feBlend mode="normal" in2="shape" result="effect1_innerShadow_352_755"/>
</filter>
<filter id="filter23_i_352_755" x="3.91602" y="62.189" width="6.90332" height="33.2988" filterUnits="userSpaceOnUse" color-interpolation-filters="sRGB">
<feFlood flood-opacity="0" result="BackgroundImageFix"/>
<feBlend mode="normal" in="SourceGraphic" in2="BackgroundImageFix" result="shape"/>
<feColorMatrix in="SourceAlpha" type="matrix" values="0 0 0 0 0 0 0 0 0 0 0 0 0 0 0 0 0 0 127 0" result="hardAlpha"/>
<feOffset dy="-1.4112"/>
<feGaussianBlur stdDeviation="1.69344"/>
<feComposite in2="hardAlpha" operator="arithmetic" k2="-1" k3="1"/>
<feColorMatrix type="matrix" values="0 0 0 0 0 0 0 0 0 0 0 0 0 0 0 0 0 0 0.57 0"/>
<feBlend mode="normal" in2="shape" result="effect1_innerShadow_352_755"/>
</filter>
<filter id="filter24_i_352_755" x="5.49512" y="100.807" width="2.42871" height="2.42834" filterUnits="userSpaceOnUse" color-interpolation-filters="sRGB">
<feFlood flood-opacity="0" result="BackgroundImageFix"/>
<feBlend mode="normal" in="SourceGraphic" in2="BackgroundImageFix" result="shape"/>
<feColorMatrix in="SourceAlpha" type="matrix" values="0 0 0 0 0 0 0 0 0 0 0 0 0 0 0 0 0 0 127 0" result="hardAlpha"/>
<feOffset/>
<feGaussianBlur stdDeviation="0.28224"/>
<feComposite in2="hardAlpha" operator="arithmetic" k2="-1" k3="1"/>
<feColorMatrix type="matrix" values="0 0 0 0 0 0 0 0 0 0 0 0 0 0 0 0 0 0 0.6 0"/>
<feBlend mode="normal" in2="shape" result="effect1_innerShadow_352_755"/>
</filter>
<filter id="filter25_i_352_755" x="5.49512" y="55.8535" width="2.42871" height="2.42847" filterUnits="userSpaceOnUse" color-interpolation-filters="sRGB">
<feFlood flood-opacity="0" result="BackgroundImageFix"/>
<feBlend mode="normal" in="SourceGraphic" in2="BackgroundImageFix" result="shape"/>
<feColorMatrix in="SourceAlpha" type="matrix" values="0 0 0 0 0 0 0 0 0 0 0 0 0 0 0 0 0 0 127 0" result="hardAlpha"/>
<feOffset/>
<feGaussianBlur stdDeviation="0.28224"/>
<feComposite in2="hardAlpha" operator="arithmetic" k2="-1" k3="1"/>
<feColorMatrix type="matrix" values="0 0 0 0 0 0 0 0 0 0 0 0 0 0 0 0 0 0 0.6 0"/>
<feBlend mode="normal" in2="shape" result="effect1_innerShadow_352_755"/>
</filter>
<radialGradient id="paint0_radial_352_755" cx="0" cy="0" r="1" gradientUnits="userSpaceOnUse" gradientTransform="translate(91.7911 81.6003) scale(118.224 105.195)">
<stop stop-color="#323231"/>
<stop offset="1"/>
</radialGradient>
<radialGradient id="paint1_radial_352_755" cx="0" cy="0" r="1" gradientUnits="userSpaceOnUse" gradientTransform="translate(91.4269 81.1714) scale(103.201 90.1671)">
<stop stop-color="#142D5E"/>
<stop offset="1" stop-color="#020E25"/>
</radialGradient>
</defs>
</svg>
