<svg width="432" height="164" viewBox="0 0 432 164" fill="none" xmlns="http://www.w3.org/2000/svg">
<rect x="4.9002" y="5.10039" width="421.6" height="152.6" rx="30.8" fill="#D9D9D9"/>
<rect x="4.9002" y="5.10039" width="421.6" height="152.6" rx="30.8" fill="url(#paint0_radial_163_341)"/>
<rect x="4.9002" y="5.10039" width="421.6" height="152.6" rx="30.8" stroke="#5F5E5E" stroke-width="8.4"/>
<rect x="13.4" y="13.4" width="404.2" height="136.2" rx="23.8" fill="#D9D9D9"/>
<rect x="13.4" y="13.4" width="404.2" height="136.2" rx="23.8" fill="url(#paint1_radial_163_341)"/>
<rect x="13.4" y="13.4" width="404.2" height="136.2" rx="23.8" stroke="#FF8A00" stroke-width="2.8"/>
<g filter="url(#filter1_i_163_341)">
<path d="M178.95 0.000244141H252.625L265.575 15.0502H166L178.95 0.000244141Z" fill="#696968"/>
</g>
<path d="M252.543 0.175049L265.193 14.8752H166.381L179.031 0.175049H252.543Z" stroke="#A0A0A0" stroke-width="0.35"/>
<g filter="url(#filter2_i_163_341)">
<path d="M188.224 4.20022L244.049 3.85022L247.024 6.82522L242.124 11.2002H190.324L184.899 6.82522L188.224 4.20022Z" fill="#312F2A"/>
</g>
<path d="M247.271 6.57776L247.534 6.83948L247.258 7.08655L242.357 11.4615L242.258 11.5504H190.201L190.104 11.4723L184.68 7.09729L184.338 6.8219L184.683 6.55042L188.008 3.92542L188.102 3.8512L188.223 3.85022L244.047 3.50061L244.193 3.49963L247.271 6.57776Z" stroke="#85827C" stroke-width="0.7"/>
<g filter="url(#filter3_i_163_341)">
<path d="M193.197 4.20034L238.486 3.85034L240.9 6.82534L236.924 11.2003H194.901L190.5 6.82534L193.197 4.20034Z" fill="#312F2A"/>
</g>
<rect x="198.375" y="5.95032" width="10.5" height="3.5" rx="0.7" fill="#FF8A00"/>
<rect x="210.975" y="5.95032" width="10.15" height="3.5" rx="0.7" fill="#FF8A00"/>
<rect x="223.225" y="5.95032" width="10.5" height="3.5" rx="0.7" fill="#FF8A00"/>
<g filter="url(#filter4_i_163_341)">
<circle cx="251.224" cy="6.82524" r="1.575" fill="#D9D9D9"/>
</g>
<rect x="251.05" y="5.77539" width="0.35" height="2.1" fill="#3C3B3B"/>
<g filter="url(#filter5_i_163_341)">
<circle cx="180.175" cy="6.82524" r="1.575" fill="#D9D9D9"/>
</g>
<rect x="180" y="5.77539" width="0.35" height="2.1" fill="#3C3B3B"/>
<g filter="url(#filter6_i_163_341)">
<path d="M178.95 163.05H252.625L265.575 148H166L178.95 163.05Z" fill="#696968"/>
</g>
<path d="M252.543 162.875L265.193 148.175H166.381L179.031 162.875H252.543Z" stroke="#A0A0A0" stroke-width="0.35"/>
<g filter="url(#filter7_i_163_341)">
<path d="M188.224 158.85L244.049 159.2L247.024 156.225L242.124 151.85H190.324L184.899 156.225L188.224 158.85Z" fill="#312F2A"/>
</g>
<path d="M247.271 156.472L247.534 156.21L247.258 155.963L242.357 151.588L242.258 151.499H190.201L190.104 151.578L184.68 155.953L184.338 156.228L184.683 156.499L188.008 159.124L188.102 159.199L188.223 159.2L244.047 159.549L244.193 159.55L247.271 156.472Z" stroke="#85827C" stroke-width="0.7"/>
<g filter="url(#filter8_i_163_341)">
<path d="M193.197 158.849L238.486 159.199L240.9 156.224L236.924 151.849H194.901L190.5 156.224L193.197 158.849Z" fill="#312F2A"/>
</g>
<rect width="10.5" height="3.5" rx="0.7" transform="matrix(1 0 0 -1 198.375 157.099)" fill="#FF8A00"/>
<rect width="10.15" height="3.5" rx="0.7" transform="matrix(1 0 0 -1 210.975 157.099)" fill="#FF8A00"/>
<rect width="10.5" height="3.5" rx="0.7" transform="matrix(1 0 0 -1 223.225 157.099)" fill="#FF8A00"/>
<g filter="url(#filter9_i_163_341)">
<circle cx="1.575" cy="1.575" r="1.575" transform="matrix(1 0 0 -1 249.649 157.8)" fill="#D9D9D9"/>
</g>
<rect width="0.35" height="2.1" transform="matrix(1 0 0 -1 251.05 157.274)" fill="#3C3B3B"/>
<g filter="url(#filter10_i_163_341)">
<circle cx="1.575" cy="1.575" r="1.575" transform="matrix(1 0 0 -1 178.6 157.8)" fill="#D9D9D9"/>
</g>
<rect width="0.35" height="2.1" transform="matrix(1 0 0 -1 180 157.274)" fill="#3C3B3B"/>
<g filter="url(#filter11_i_163_341)">
<path d="M0 53.7409V109.159L15.05 118.9V44L0 53.7409Z" fill="#696968"/>
</g>
<path d="M0.174805 109.063L14.875 118.578V44.3213L0.174805 53.8359V109.063Z" stroke="#A0A0A0" stroke-width="0.35"/>
<g filter="url(#filter12_i_163_341)">
<path d="M4.19961 60.7174L3.84961 102.709L6.82461 104.947L11.1996 101.261V62.297L6.82461 58.2163L4.19961 60.7174Z" fill="#312F2A"/>
</g>
<path d="M3.63965 102.989L6.61426 105.226L6.83691 105.394L7.0498 105.214L11.4248 101.529L11.5498 101.423V62.145L11.4385 62.0415L7.06348 57.9604L6.82227 57.7349L6.58301 57.9634L3.95801 60.4644L3.85059 60.5659L3.84961 60.7144L3.5 102.706L3.49805 102.882L3.63965 102.989Z" stroke="#85827C" stroke-width="0.7"/>
<g filter="url(#filter13_i_163_341)">
<path d="M4.19961 64.4576L3.84961 98.5239L6.82461 100.339L11.1996 97.3492V65.7391L6.82461 62.4286L4.19961 64.4576Z" fill="#312F2A"/>
</g>
<rect width="7.89807" height="3.5" rx="0.7" transform="matrix(0 1 1 0 5.94971 68.3523)" fill="#FF8A00"/>
<rect width="7.6348" height="3.5" rx="0.7" transform="matrix(0 1 1 0 5.94971 77.83)" fill="#FF8A00"/>
<rect width="7.89807" height="3.5" rx="0.7" transform="matrix(0 1 1 0 5.94971 87.0444)" fill="#FF8A00"/>
<g filter="url(#filter14_i_163_341)">
<circle cx="1.36599" cy="1.36599" r="1.36599" transform="matrix(0 1 1 0 5.45898 106.74)" fill="#D9D9D9"/>
</g>
<rect width="0.303552" height="1.82131" transform="matrix(0 1 1 0 5.91406 107.954)" fill="#3C3B3B"/>
<g filter="url(#filter15_i_163_341)">
<circle cx="1.36599" cy="1.36599" r="1.36599" transform="matrix(0 1 1 0 5.45898 53.2964)" fill="#D9D9D9"/>
</g>
<rect width="0.303552" height="1.82131" transform="matrix(0 1 1 0 5.91406 54.5105)" fill="#3C3B3B"/>
<g filter="url(#filter16_i_163_341)">
<path d="M431.05 53.7409V109.159L416 118.9V44L431.05 53.7409Z" fill="#696968"/>
</g>
<path d="M430.875 109.063L416.175 118.578V44.3213L430.875 53.8359V109.063Z" stroke="#A0A0A0" stroke-width="0.35"/>
<g filter="url(#filter17_i_163_341)">
<path d="M426.85 60.7174L427.2 102.709L424.225 104.947L419.85 101.261V62.297L424.225 58.2163L426.85 60.7174Z" fill="#312F2A"/>
</g>
<path d="M427.41 102.989L424.436 105.226L424.213 105.394L424 105.214L419.625 101.529L419.5 101.423V62.145L419.611 62.0415L423.986 57.9604L424.228 57.7349L424.467 57.9634L427.092 60.4644L427.199 60.5659L427.2 60.7144L427.55 102.706L427.552 102.882L427.41 102.989Z" stroke="#85827C" stroke-width="0.7"/>
<g filter="url(#filter18_i_163_341)">
<path d="M426.85 64.4576L427.2 98.5239L424.225 100.339L419.85 97.3492V65.7391L424.225 62.4286L426.85 64.4576Z" fill="#312F2A"/>
</g>
<rect x="425.1" y="68.3523" width="7.89807" height="3.5" rx="0.7" transform="rotate(90 425.1 68.3523)" fill="#FF8A00"/>
<rect x="425.1" y="77.83" width="7.6348" height="3.5" rx="0.7" transform="rotate(90 425.1 77.83)" fill="#FF8A00"/>
<rect x="425.1" y="87.0444" width="7.89807" height="3.5" rx="0.7" transform="rotate(90 425.1 87.0444)" fill="#FF8A00"/>
<g filter="url(#filter19_i_163_341)">
<circle cx="424.225" cy="108.106" r="1.36599" transform="rotate(90 424.225 108.106)" fill="#D9D9D9"/>
</g>
<rect x="425.136" y="107.954" width="0.303552" height="1.82131" transform="rotate(90 425.136 107.954)" fill="#3C3B3B"/>
<g filter="url(#filter20_i_163_341)">
<circle cx="424.225" cy="54.6624" r="1.36599" transform="rotate(90 424.225 54.6624)" fill="#D9D9D9"/>
</g>
<rect x="425.136" y="54.5105" width="0.303552" height="1.82131" transform="rotate(90 425.136 54.5105)" fill="#3C3B3B"/>
<defs>
<filter id="filter1_i_163_341" x="166" y="0.000244141" width="99.5752" height="15.05" filterUnits="userSpaceOnUse" color-interpolation-filters="sRGB">
<feFlood flood-opacity="0" result="BackgroundImageFix"/>
<feBlend mode="normal" in="SourceGraphic" in2="BackgroundImageFix" result="shape"/>
<feColorMatrix in="SourceAlpha" type="matrix" values="0 0 0 0 0 0 0 0 0 0 0 0 0 0 0 0 0 0 127 0" result="hardAlpha"/>
<feOffset/>
<feGaussianBlur stdDeviation="1.05"/>
<feComposite in2="hardAlpha" operator="arithmetic" k2="-1" k3="1"/>
<feColorMatrix type="matrix" values="0 0 0 0 0 0 0 0 0 0 0 0 0 0 0 0 0 0 0.5 0"/>
<feBlend mode="normal" in2="shape" result="effect1_innerShadow_163_341"/>
</filter>
<filter id="filter2_i_163_341" x="183.777" y="1.39844" width="64.2656" height="10.5017" filterUnits="userSpaceOnUse" color-interpolation-filters="sRGB">
<feFlood flood-opacity="0" result="BackgroundImageFix"/>
<feBlend mode="normal" in="SourceGraphic" in2="BackgroundImageFix" result="shape"/>
<feColorMatrix in="SourceAlpha" type="matrix" values="0 0 0 0 0 0 0 0 0 0 0 0 0 0 0 0 0 0 127 0" result="hardAlpha"/>
<feOffset dy="-1.75"/>
<feGaussianBlur stdDeviation="2.1"/>
<feComposite in2="hardAlpha" operator="arithmetic" k2="-1" k3="1"/>
<feColorMatrix type="matrix" values="0 0 0 0 0 0 0 0 0 0 0 0 0 0 0 0 0 0 0.57 0"/>
<feBlend mode="normal" in2="shape" result="effect1_innerShadow_163_341"/>
</filter>
<filter id="filter3_i_163_341" x="190.5" y="2.10034" width="50.3999" height="9.09998" filterUnits="userSpaceOnUse" color-interpolation-filters="sRGB">
<feFlood flood-opacity="0" result="BackgroundImageFix"/>
<feBlend mode="normal" in="SourceGraphic" in2="BackgroundImageFix" result="shape"/>
<feColorMatrix in="SourceAlpha" type="matrix" values="0 0 0 0 0 0 0 0 0 0 0 0 0 0 0 0 0 0 127 0" result="hardAlpha"/>
<feOffset dy="-1.75"/>
<feGaussianBlur stdDeviation="2.1"/>
<feComposite in2="hardAlpha" operator="arithmetic" k2="-1" k3="1"/>
<feColorMatrix type="matrix" values="0 0 0 0 0 0 0 0 0 0 0 0 0 0 0 0 0 0 0.57 0"/>
<feBlend mode="normal" in2="shape" result="effect1_innerShadow_163_341"/>
</filter>
<filter id="filter4_i_163_341" x="249.649" y="5.25024" width="3.1499" height="3.15002" filterUnits="userSpaceOnUse" color-interpolation-filters="sRGB">
<feFlood flood-opacity="0" result="BackgroundImageFix"/>
<feBlend mode="normal" in="SourceGraphic" in2="BackgroundImageFix" result="shape"/>
<feColorMatrix in="SourceAlpha" type="matrix" values="0 0 0 0 0 0 0 0 0 0 0 0 0 0 0 0 0 0 127 0" result="hardAlpha"/>
<feOffset/>
<feGaussianBlur stdDeviation="0.35"/>
<feComposite in2="hardAlpha" operator="arithmetic" k2="-1" k3="1"/>
<feColorMatrix type="matrix" values="0 0 0 0 0 0 0 0 0 0 0 0 0 0 0 0 0 0 0.6 0"/>
<feBlend mode="normal" in2="shape" result="effect1_innerShadow_163_341"/>
</filter>
<filter id="filter5_i_163_341" x="178.6" y="5.25024" width="3.1499" height="3.15002" filterUnits="userSpaceOnUse" color-interpolation-filters="sRGB">
<feFlood flood-opacity="0" result="BackgroundImageFix"/>
<feBlend mode="normal" in="SourceGraphic" in2="BackgroundImageFix" result="shape"/>
<feColorMatrix in="SourceAlpha" type="matrix" values="0 0 0 0 0 0 0 0 0 0 0 0 0 0 0 0 0 0 127 0" result="hardAlpha"/>
<feOffset/>
<feGaussianBlur stdDeviation="0.35"/>
<feComposite in2="hardAlpha" operator="arithmetic" k2="-1" k3="1"/>
<feColorMatrix type="matrix" values="0 0 0 0 0 0 0 0 0 0 0 0 0 0 0 0 0 0 0.6 0"/>
<feBlend mode="normal" in2="shape" result="effect1_innerShadow_163_341"/>
</filter>
<filter id="filter6_i_163_341" x="166" y="148" width="99.5752" height="15.05" filterUnits="userSpaceOnUse" color-interpolation-filters="sRGB">
<feFlood flood-opacity="0" result="BackgroundImageFix"/>
<feBlend mode="normal" in="SourceGraphic" in2="BackgroundImageFix" result="shape"/>
<feColorMatrix in="SourceAlpha" type="matrix" values="0 0 0 0 0 0 0 0 0 0 0 0 0 0 0 0 0 0 127 0" result="hardAlpha"/>
<feOffset/>
<feGaussianBlur stdDeviation="1.05"/>
<feComposite in2="hardAlpha" operator="arithmetic" k2="-1" k3="1"/>
<feColorMatrix type="matrix" values="0 0 0 0 0 0 0 0 0 0 0 0 0 0 0 0 0 0 0.5 0"/>
<feBlend mode="normal" in2="shape" result="effect1_innerShadow_163_341"/>
</filter>
<filter id="filter7_i_163_341" x="183.777" y="149.4" width="64.2656" height="10.5017" filterUnits="userSpaceOnUse" color-interpolation-filters="sRGB">
<feFlood flood-opacity="0" result="BackgroundImageFix"/>
<feBlend mode="normal" in="SourceGraphic" in2="BackgroundImageFix" result="shape"/>
<feColorMatrix in="SourceAlpha" type="matrix" values="0 0 0 0 0 0 0 0 0 0 0 0 0 0 0 0 0 0 127 0" result="hardAlpha"/>
<feOffset dy="-1.75"/>
<feGaussianBlur stdDeviation="2.1"/>
<feComposite in2="hardAlpha" operator="arithmetic" k2="-1" k3="1"/>
<feColorMatrix type="matrix" values="0 0 0 0 0 0 0 0 0 0 0 0 0 0 0 0 0 0 0.57 0"/>
<feBlend mode="normal" in2="shape" result="effect1_innerShadow_163_341"/>
</filter>
<filter id="filter8_i_163_341" x="190.5" y="150.099" width="50.3999" height="9.09998" filterUnits="userSpaceOnUse" color-interpolation-filters="sRGB">
<feFlood flood-opacity="0" result="BackgroundImageFix"/>
<feBlend mode="normal" in="SourceGraphic" in2="BackgroundImageFix" result="shape"/>
<feColorMatrix in="SourceAlpha" type="matrix" values="0 0 0 0 0 0 0 0 0 0 0 0 0 0 0 0 0 0 127 0" result="hardAlpha"/>
<feOffset dy="-1.75"/>
<feGaussianBlur stdDeviation="2.1"/>
<feComposite in2="hardAlpha" operator="arithmetic" k2="-1" k3="1"/>
<feColorMatrix type="matrix" values="0 0 0 0 0 0 0 0 0 0 0 0 0 0 0 0 0 0 0.57 0"/>
<feBlend mode="normal" in2="shape" result="effect1_innerShadow_163_341"/>
</filter>
<filter id="filter9_i_163_341" x="249.649" y="154.65" width="3.1499" height="3.15002" filterUnits="userSpaceOnUse" color-interpolation-filters="sRGB">
<feFlood flood-opacity="0" result="BackgroundImageFix"/>
<feBlend mode="normal" in="SourceGraphic" in2="BackgroundImageFix" result="shape"/>
<feColorMatrix in="SourceAlpha" type="matrix" values="0 0 0 0 0 0 0 0 0 0 0 0 0 0 0 0 0 0 127 0" result="hardAlpha"/>
<feOffset/>
<feGaussianBlur stdDeviation="0.35"/>
<feComposite in2="hardAlpha" operator="arithmetic" k2="-1" k3="1"/>
<feColorMatrix type="matrix" values="0 0 0 0 0 0 0 0 0 0 0 0 0 0 0 0 0 0 0.6 0"/>
<feBlend mode="normal" in2="shape" result="effect1_innerShadow_163_341"/>
</filter>
<filter id="filter10_i_163_341" x="178.6" y="154.65" width="3.1499" height="3.15002" filterUnits="userSpaceOnUse" color-interpolation-filters="sRGB">
<feFlood flood-opacity="0" result="BackgroundImageFix"/>
<feBlend mode="normal" in="SourceGraphic" in2="BackgroundImageFix" result="shape"/>
<feColorMatrix in="SourceAlpha" type="matrix" values="0 0 0 0 0 0 0 0 0 0 0 0 0 0 0 0 0 0 127 0" result="hardAlpha"/>
<feOffset/>
<feGaussianBlur stdDeviation="0.35"/>
<feComposite in2="hardAlpha" operator="arithmetic" k2="-1" k3="1"/>
<feColorMatrix type="matrix" values="0 0 0 0 0 0 0 0 0 0 0 0 0 0 0 0 0 0 0.6 0"/>
<feBlend mode="normal" in2="shape" result="effect1_innerShadow_163_341"/>
</filter>
<filter id="filter11_i_163_341" x="0" y="44" width="15.0498" height="74.9" filterUnits="userSpaceOnUse" color-interpolation-filters="sRGB">
<feFlood flood-opacity="0" result="BackgroundImageFix"/>
<feBlend mode="normal" in="SourceGraphic" in2="BackgroundImageFix" result="shape"/>
<feColorMatrix in="SourceAlpha" type="matrix" values="0 0 0 0 0 0 0 0 0 0 0 0 0 0 0 0 0 0 127 0" result="hardAlpha"/>
<feOffset/>
<feGaussianBlur stdDeviation="1.05"/>
<feComposite in2="hardAlpha" operator="arithmetic" k2="-1" k3="1"/>
<feColorMatrix type="matrix" values="0 0 0 0 0 0 0 0 0 0 0 0 0 0 0 0 0 0 0.5 0"/>
<feBlend mode="normal" in2="shape" result="effect1_innerShadow_163_341"/>
</filter>
<filter id="filter12_i_163_341" x="3.14648" y="55.5043" width="8.75293" height="50.3368" filterUnits="userSpaceOnUse" color-interpolation-filters="sRGB">
<feFlood flood-opacity="0" result="BackgroundImageFix"/>
<feBlend mode="normal" in="SourceGraphic" in2="BackgroundImageFix" result="shape"/>
<feColorMatrix in="SourceAlpha" type="matrix" values="0 0 0 0 0 0 0 0 0 0 0 0 0 0 0 0 0 0 127 0" result="hardAlpha"/>
<feOffset dy="-1.75"/>
<feGaussianBlur stdDeviation="2.1"/>
<feComposite in2="hardAlpha" operator="arithmetic" k2="-1" k3="1"/>
<feColorMatrix type="matrix" values="0 0 0 0 0 0 0 0 0 0 0 0 0 0 0 0 0 0 0.57 0"/>
<feBlend mode="normal" in2="shape" result="effect1_innerShadow_163_341"/>
</filter>
<filter id="filter13_i_163_341" x="3.84961" y="60.6786" width="7.3501" height="39.6608" filterUnits="userSpaceOnUse" color-interpolation-filters="sRGB">
<feFlood flood-opacity="0" result="BackgroundImageFix"/>
<feBlend mode="normal" in="SourceGraphic" in2="BackgroundImageFix" result="shape"/>
<feColorMatrix in="SourceAlpha" type="matrix" values="0 0 0 0 0 0 0 0 0 0 0 0 0 0 0 0 0 0 127 0" result="hardAlpha"/>
<feOffset dy="-1.75"/>
<feGaussianBlur stdDeviation="2.1"/>
<feComposite in2="hardAlpha" operator="arithmetic" k2="-1" k3="1"/>
<feColorMatrix type="matrix" values="0 0 0 0 0 0 0 0 0 0 0 0 0 0 0 0 0 0 0.57 0"/>
<feBlend mode="normal" in2="shape" result="effect1_innerShadow_163_341"/>
</filter>
<filter id="filter14_i_163_341" x="5.45898" y="106.74" width="2.73193" height="2.73193" filterUnits="userSpaceOnUse" color-interpolation-filters="sRGB">
<feFlood flood-opacity="0" result="BackgroundImageFix"/>
<feBlend mode="normal" in="SourceGraphic" in2="BackgroundImageFix" result="shape"/>
<feColorMatrix in="SourceAlpha" type="matrix" values="0 0 0 0 0 0 0 0 0 0 0 0 0 0 0 0 0 0 127 0" result="hardAlpha"/>
<feOffset/>
<feGaussianBlur stdDeviation="0.35"/>
<feComposite in2="hardAlpha" operator="arithmetic" k2="-1" k3="1"/>
<feColorMatrix type="matrix" values="0 0 0 0 0 0 0 0 0 0 0 0 0 0 0 0 0 0 0.6 0"/>
<feBlend mode="normal" in2="shape" result="effect1_innerShadow_163_341"/>
</filter>
<filter id="filter15_i_163_341" x="5.45898" y="53.2964" width="2.73193" height="2.73193" filterUnits="userSpaceOnUse" color-interpolation-filters="sRGB">
<feFlood flood-opacity="0" result="BackgroundImageFix"/>
<feBlend mode="normal" in="SourceGraphic" in2="BackgroundImageFix" result="shape"/>
<feColorMatrix in="SourceAlpha" type="matrix" values="0 0 0 0 0 0 0 0 0 0 0 0 0 0 0 0 0 0 127 0" result="hardAlpha"/>
<feOffset/>
<feGaussianBlur stdDeviation="0.35"/>
<feComposite in2="hardAlpha" operator="arithmetic" k2="-1" k3="1"/>
<feColorMatrix type="matrix" values="0 0 0 0 0 0 0 0 0 0 0 0 0 0 0 0 0 0 0.6 0"/>
<feBlend mode="normal" in2="shape" result="effect1_innerShadow_163_341"/>
</filter>
<filter id="filter16_i_163_341" x="416" y="44" width="15.0498" height="74.9" filterUnits="userSpaceOnUse" color-interpolation-filters="sRGB">
<feFlood flood-opacity="0" result="BackgroundImageFix"/>
<feBlend mode="normal" in="SourceGraphic" in2="BackgroundImageFix" result="shape"/>
<feColorMatrix in="SourceAlpha" type="matrix" values="0 0 0 0 0 0 0 0 0 0 0 0 0 0 0 0 0 0 127 0" result="hardAlpha"/>
<feOffset/>
<feGaussianBlur stdDeviation="1.05"/>
<feComposite in2="hardAlpha" operator="arithmetic" k2="-1" k3="1"/>
<feColorMatrix type="matrix" values="0 0 0 0 0 0 0 0 0 0 0 0 0 0 0 0 0 0 0.5 0"/>
<feBlend mode="normal" in2="shape" result="effect1_innerShadow_163_341"/>
</filter>
<filter id="filter17_i_163_341" x="419.15" y="55.5043" width="8.75293" height="50.3368" filterUnits="userSpaceOnUse" color-interpolation-filters="sRGB">
<feFlood flood-opacity="0" result="BackgroundImageFix"/>
<feBlend mode="normal" in="SourceGraphic" in2="BackgroundImageFix" result="shape"/>
<feColorMatrix in="SourceAlpha" type="matrix" values="0 0 0 0 0 0 0 0 0 0 0 0 0 0 0 0 0 0 127 0" result="hardAlpha"/>
<feOffset dy="-1.75"/>
<feGaussianBlur stdDeviation="2.1"/>
<feComposite in2="hardAlpha" operator="arithmetic" k2="-1" k3="1"/>
<feColorMatrix type="matrix" values="0 0 0 0 0 0 0 0 0 0 0 0 0 0 0 0 0 0 0.57 0"/>
<feBlend mode="normal" in2="shape" result="effect1_innerShadow_163_341"/>
</filter>
<filter id="filter18_i_163_341" x="419.85" y="60.6786" width="7.3501" height="39.6608" filterUnits="userSpaceOnUse" color-interpolation-filters="sRGB">
<feFlood flood-opacity="0" result="BackgroundImageFix"/>
<feBlend mode="normal" in="SourceGraphic" in2="BackgroundImageFix" result="shape"/>
<feColorMatrix in="SourceAlpha" type="matrix" values="0 0 0 0 0 0 0 0 0 0 0 0 0 0 0 0 0 0 127 0" result="hardAlpha"/>
<feOffset dy="-1.75"/>
<feGaussianBlur stdDeviation="2.1"/>
<feComposite in2="hardAlpha" operator="arithmetic" k2="-1" k3="1"/>
<feColorMatrix type="matrix" values="0 0 0 0 0 0 0 0 0 0 0 0 0 0 0 0 0 0 0.57 0"/>
<feBlend mode="normal" in2="shape" result="effect1_innerShadow_163_341"/>
</filter>
<filter id="filter19_i_163_341" x="422.859" y="106.74" width="2.73193" height="2.73193" filterUnits="userSpaceOnUse" color-interpolation-filters="sRGB">
<feFlood flood-opacity="0" result="BackgroundImageFix"/>
<feBlend mode="normal" in="SourceGraphic" in2="BackgroundImageFix" result="shape"/>
<feColorMatrix in="SourceAlpha" type="matrix" values="0 0 0 0 0 0 0 0 0 0 0 0 0 0 0 0 0 0 127 0" result="hardAlpha"/>
<feOffset/>
<feGaussianBlur stdDeviation="0.35"/>
<feComposite in2="hardAlpha" operator="arithmetic" k2="-1" k3="1"/>
<feColorMatrix type="matrix" values="0 0 0 0 0 0 0 0 0 0 0 0 0 0 0 0 0 0 0.6 0"/>
<feBlend mode="normal" in2="shape" result="effect1_innerShadow_163_341"/>
</filter>
<filter id="filter20_i_163_341" x="422.859" y="53.2964" width="2.73193" height="2.73193" filterUnits="userSpaceOnUse" color-interpolation-filters="sRGB">
<feFlood flood-opacity="0" result="BackgroundImageFix"/>
<feBlend mode="normal" in="SourceGraphic" in2="BackgroundImageFix" result="shape"/>
<feColorMatrix in="SourceAlpha" type="matrix" values="0 0 0 0 0 0 0 0 0 0 0 0 0 0 0 0 0 0 127 0" result="hardAlpha"/>
<feOffset/>
<feGaussianBlur stdDeviation="0.35"/>
<feComposite in2="hardAlpha" operator="arithmetic" k2="-1" k3="1"/>
<feColorMatrix type="matrix" values="0 0 0 0 0 0 0 0 0 0 0 0 0 0 0 0 0 0 0.6 0"/>
<feBlend mode="normal" in2="shape" result="effect1_innerShadow_163_341"/>
</filter>
<radialGradient id="paint0_radial_163_341" cx="0" cy="0" r="1" gradientUnits="userSpaceOnUse" gradientTransform="translate(218.767 81.6003) scale(280.863 105.195)">
<stop stop-color="#323231"/>
<stop offset="1"/>
</radialGradient>
<radialGradient id="paint1_radial_163_341" cx="0" cy="0" r="1" gradientUnits="userSpaceOnUse" gradientTransform="translate(218.403 81.6726) scale(265.84 90.8205)">
<stop stop-color="#323231"/>
<stop offset="1"/>
</radialGradient>
</defs>
</svg>
