<svg width="652" height="178" viewBox="0 0 652 178" fill="none" xmlns="http://www.w3.org/2000/svg">
<rect x="4.2" y="4.2" width="642.6" height="168.6" rx="30.8" fill="#D9D9D9"/>
<rect x="4.2" y="4.2" width="642.6" height="168.6" rx="30.8" fill="url(#paint0_radial_163_6)"/>
<rect x="4.2" y="4.2" width="642.6" height="168.6" rx="30.8" stroke="#5F5E5E" stroke-width="8.4"/>
<rect x="13.4" y="13.4" width="624.2" height="150.2" rx="23.8" fill="#D9D9D9"/>
<rect x="13.4" y="13.4" width="624.2" height="150.2" rx="23.8" fill="url(#paint1_radial_163_6)"/>
<rect x="13.4" y="13.4" width="624.2" height="150.2" rx="23.8" stroke="#96F2F7" stroke-width="2.8"/>
<g filter="url(#filter1_i_163_6)">
<path d="M288.95 0.000244141H362.625L375.575 15.0502H276L288.95 0.000244141Z" fill="#696968"/>
</g>
<path d="M362.543 0.175049L375.193 14.8752H276.381L289.031 0.175049H362.543Z" stroke="#A0A0A0" stroke-width="0.35"/>
<g filter="url(#filter2_i_163_6)">
<path d="M298.224 4.20034L354.049 3.85034L357.024 6.82534L352.124 11.2003H300.324L294.899 6.82534L298.224 4.20034Z" fill="#312F2A"/>
</g>
<path d="M357.271 6.57788L357.534 6.8396L357.258 7.08667L352.357 11.4617L352.258 11.5505H300.201L300.104 11.4724L294.68 7.09741L294.338 6.82202L294.683 6.55054L298.008 3.92554L298.102 3.85132L298.223 3.85034L354.047 3.50073L354.193 3.49976L357.271 6.57788Z" stroke="#85827C" stroke-width="0.7"/>
<g filter="url(#filter3_i_163_6)">
<path d="M303.197 4.20034L348.486 3.85034L350.9 6.82534L346.924 11.2003H304.901L300.5 6.82534L303.197 4.20034Z" fill="#312F2A"/>
</g>
<rect x="308.375" y="5.95044" width="10.5" height="3.5" rx="0.7" fill="#96F2F7"/>
<rect x="320.975" y="5.95044" width="10.15" height="3.5" rx="0.7" fill="#96F2F7"/>
<rect x="333.225" y="5.95044" width="10.5" height="3.5" rx="0.7" fill="#96F2F7"/>
<g filter="url(#filter4_i_163_6)">
<circle cx="361.224" cy="6.82524" r="1.575" fill="#D9D9D9"/>
</g>
<rect x="361.05" y="5.77539" width="0.35" height="2.1" fill="#3C3B3B"/>
<g filter="url(#filter5_i_163_6)">
<circle cx="290.175" cy="6.82524" r="1.575" fill="#D9D9D9"/>
</g>
<rect x="290" y="5.77539" width="0.35" height="2.1" fill="#3C3B3B"/>
<g filter="url(#filter6_i_163_6)">
<path d="M288.95 177.05H362.625L375.575 162H276L288.95 177.05Z" fill="#696968"/>
</g>
<path d="M362.543 176.875L375.193 162.175H276.381L289.031 176.875H362.543Z" stroke="#A0A0A0" stroke-width="0.35"/>
<g filter="url(#filter7_i_163_6)">
<path d="M298.224 172.849L354.049 173.199L357.024 170.224L352.124 165.849H300.324L294.899 170.224L298.224 172.849Z" fill="#312F2A"/>
</g>
<path d="M357.271 170.472L357.534 170.21L357.258 169.963L352.357 165.588L352.258 165.499H300.201L300.104 165.577L294.68 169.952L294.338 170.228L294.683 170.499L298.008 173.124L298.102 173.198L298.223 173.199L354.047 173.549L354.193 173.55L357.271 170.472Z" stroke="#85827C" stroke-width="0.7"/>
<g filter="url(#filter8_i_163_6)">
<path d="M303.197 172.849L348.486 173.199L350.9 170.224L346.924 165.849H304.901L300.5 170.224L303.197 172.849Z" fill="#312F2A"/>
</g>
<rect width="10.5" height="3.5" rx="0.7" transform="matrix(1 0 0 -1 308.375 171.099)" fill="#96F2F7"/>
<rect width="10.15" height="3.5" rx="0.7" transform="matrix(1 0 0 -1 320.975 171.099)" fill="#96F2F7"/>
<rect width="10.5" height="3.5" rx="0.7" transform="matrix(1 0 0 -1 333.225 171.099)" fill="#96F2F7"/>
<g filter="url(#filter9_i_163_6)">
<circle cx="1.575" cy="1.575" r="1.575" transform="matrix(1 0 0 -1 359.649 171.8)" fill="#D9D9D9"/>
</g>
<rect width="0.35" height="2.1" transform="matrix(1 0 0 -1 361.05 171.274)" fill="#3C3B3B"/>
<g filter="url(#filter10_i_163_6)">
<circle cx="1.575" cy="1.575" r="1.575" transform="matrix(1 0 0 -1 288.6 171.8)" fill="#D9D9D9"/>
</g>
<rect width="0.35" height="2.1" transform="matrix(1 0 0 -1 290 171.274)" fill="#3C3B3B"/>
<g filter="url(#filter11_i_163_6)">
<path d="M0 60.7409V116.159L15.05 125.9V51L0 60.7409Z" fill="#696968"/>
</g>
<path d="M0.174805 116.063L14.875 125.578V51.3213L0.174805 60.8359V116.063Z" stroke="#A0A0A0" stroke-width="0.35"/>
<g filter="url(#filter12_i_163_6)">
<path d="M4.19961 67.7174L3.84961 109.709L6.82461 111.947L11.1996 108.261V69.297L6.82461 65.2163L4.19961 67.7174Z" fill="#312F2A"/>
</g>
<path d="M3.63965 109.989L6.61426 112.226L6.83691 112.394L7.0498 112.214L11.4248 108.529L11.5498 108.423V69.145L11.4385 69.0415L7.06348 64.9604L6.82227 64.7349L6.58301 64.9634L3.95801 67.4644L3.85059 67.5659L3.84961 67.7144L3.5 109.706L3.49805 109.882L3.63965 109.989Z" stroke="#85827C" stroke-width="0.7"/>
<g filter="url(#filter13_i_163_6)">
<path d="M4.19961 71.4575L3.84961 105.524L6.82461 107.339L11.1996 104.349V72.739L6.82461 69.4285L4.19961 71.4575Z" fill="#312F2A"/>
</g>
<rect width="7.89807" height="3.5" rx="0.7" transform="matrix(0 1 1 0 5.94971 75.3523)" fill="#96F2F7"/>
<rect width="7.6348" height="3.5" rx="0.7" transform="matrix(0 1 1 0 5.94971 84.8298)" fill="#96F2F7"/>
<rect width="7.89807" height="3.5" rx="0.7" transform="matrix(0 1 1 0 5.94971 94.0444)" fill="#96F2F7"/>
<g filter="url(#filter14_i_163_6)">
<circle cx="1.36599" cy="1.36599" r="1.36599" transform="matrix(0 1 1 0 5.45898 113.74)" fill="#D9D9D9"/>
</g>
<rect width="0.303552" height="1.82131" transform="matrix(0 1 1 0 5.91406 114.954)" fill="#3C3B3B"/>
<g filter="url(#filter15_i_163_6)">
<circle cx="1.36599" cy="1.36599" r="1.36599" transform="matrix(0 1 1 0 5.45898 60.2964)" fill="#D9D9D9"/>
</g>
<rect width="0.303552" height="1.82131" transform="matrix(0 1 1 0 5.91406 61.5105)" fill="#3C3B3B"/>
<g filter="url(#filter16_i_163_6)">
<path d="M651.05 58.7409V114.159L636 123.9V49L651.05 58.7409Z" fill="#696968"/>
</g>
<path d="M650.875 114.063L636.175 123.578V49.3213L650.875 58.8359V114.063Z" stroke="#A0A0A0" stroke-width="0.35"/>
<g filter="url(#filter17_i_163_6)">
<path d="M646.85 65.7174L647.2 107.709L644.225 109.947L639.85 106.261V67.297L644.225 63.2163L646.85 65.7174Z" fill="#312F2A"/>
</g>
<path d="M647.41 107.989L644.436 110.226L644.213 110.394L644 110.214L639.625 106.529L639.5 106.423V67.145L639.611 67.0415L643.986 62.9604L644.228 62.7349L644.467 62.9634L647.092 65.4644L647.199 65.5659L647.2 65.7144L647.55 107.706L647.552 107.882L647.41 107.989Z" stroke="#85827C" stroke-width="0.7"/>
<g filter="url(#filter18_i_163_6)">
<path d="M646.85 69.4575L647.2 103.524L644.225 105.339L639.85 102.349V70.739L644.225 67.4285L646.85 69.4575Z" fill="#312F2A"/>
</g>
<rect x="645.1" y="73.3523" width="7.89807" height="3.5" rx="0.7" transform="rotate(90 645.1 73.3523)" fill="#96F2F7"/>
<rect x="645.1" y="82.8298" width="7.6348" height="3.5" rx="0.7" transform="rotate(90 645.1 82.8298)" fill="#96F2F7"/>
<rect x="645.1" y="92.0444" width="7.89807" height="3.5" rx="0.7" transform="rotate(90 645.1 92.0444)" fill="#96F2F7"/>
<g filter="url(#filter19_i_163_6)">
<circle cx="644.225" cy="113.106" r="1.36599" transform="rotate(90 644.225 113.106)" fill="#D9D9D9"/>
</g>
<rect x="645.136" y="112.954" width="0.303552" height="1.82131" transform="rotate(90 645.136 112.954)" fill="#3C3B3B"/>
<g filter="url(#filter20_i_163_6)">
<circle cx="644.225" cy="59.6624" r="1.36599" transform="rotate(90 644.225 59.6624)" fill="#D9D9D9"/>
</g>
<rect x="645.136" y="59.5105" width="0.303552" height="1.82131" transform="rotate(90 645.136 59.5105)" fill="#3C3B3B"/>
<defs>
<filter id="filter1_i_163_6" x="276" y="0.000244141" width="99.5752" height="15.05" filterUnits="userSpaceOnUse" color-interpolation-filters="sRGB">
<feFlood flood-opacity="0" result="BackgroundImageFix"/>
<feBlend mode="normal" in="SourceGraphic" in2="BackgroundImageFix" result="shape"/>
<feColorMatrix in="SourceAlpha" type="matrix" values="0 0 0 0 0 0 0 0 0 0 0 0 0 0 0 0 0 0 127 0" result="hardAlpha"/>
<feOffset/>
<feGaussianBlur stdDeviation="1.05"/>
<feComposite in2="hardAlpha" operator="arithmetic" k2="-1" k3="1"/>
<feColorMatrix type="matrix" values="0 0 0 0 0 0 0 0 0 0 0 0 0 0 0 0 0 0 0.5 0"/>
<feBlend mode="normal" in2="shape" result="effect1_innerShadow_163_6"/>
</filter>
<filter id="filter2_i_163_6" x="293.777" y="1.39844" width="64.2656" height="10.502" filterUnits="userSpaceOnUse" color-interpolation-filters="sRGB">
<feFlood flood-opacity="0" result="BackgroundImageFix"/>
<feBlend mode="normal" in="SourceGraphic" in2="BackgroundImageFix" result="shape"/>
<feColorMatrix in="SourceAlpha" type="matrix" values="0 0 0 0 0 0 0 0 0 0 0 0 0 0 0 0 0 0 127 0" result="hardAlpha"/>
<feOffset dy="-1.75"/>
<feGaussianBlur stdDeviation="2.1"/>
<feComposite in2="hardAlpha" operator="arithmetic" k2="-1" k3="1"/>
<feColorMatrix type="matrix" values="0 0 0 0 0 0 0 0 0 0 0 0 0 0 0 0 0 0 0.57 0"/>
<feBlend mode="normal" in2="shape" result="effect1_innerShadow_163_6"/>
</filter>
<filter id="filter3_i_163_6" x="300.5" y="2.10034" width="50.3999" height="9.1001" filterUnits="userSpaceOnUse" color-interpolation-filters="sRGB">
<feFlood flood-opacity="0" result="BackgroundImageFix"/>
<feBlend mode="normal" in="SourceGraphic" in2="BackgroundImageFix" result="shape"/>
<feColorMatrix in="SourceAlpha" type="matrix" values="0 0 0 0 0 0 0 0 0 0 0 0 0 0 0 0 0 0 127 0" result="hardAlpha"/>
<feOffset dy="-1.75"/>
<feGaussianBlur stdDeviation="2.1"/>
<feComposite in2="hardAlpha" operator="arithmetic" k2="-1" k3="1"/>
<feColorMatrix type="matrix" values="0 0 0 0 0 0 0 0 0 0 0 0 0 0 0 0 0 0 0.57 0"/>
<feBlend mode="normal" in2="shape" result="effect1_innerShadow_163_6"/>
</filter>
<filter id="filter4_i_163_6" x="359.649" y="5.25024" width="3.1499" height="3.1499" filterUnits="userSpaceOnUse" color-interpolation-filters="sRGB">
<feFlood flood-opacity="0" result="BackgroundImageFix"/>
<feBlend mode="normal" in="SourceGraphic" in2="BackgroundImageFix" result="shape"/>
<feColorMatrix in="SourceAlpha" type="matrix" values="0 0 0 0 0 0 0 0 0 0 0 0 0 0 0 0 0 0 127 0" result="hardAlpha"/>
<feOffset/>
<feGaussianBlur stdDeviation="0.35"/>
<feComposite in2="hardAlpha" operator="arithmetic" k2="-1" k3="1"/>
<feColorMatrix type="matrix" values="0 0 0 0 0 0 0 0 0 0 0 0 0 0 0 0 0 0 0.6 0"/>
<feBlend mode="normal" in2="shape" result="effect1_innerShadow_163_6"/>
</filter>
<filter id="filter5_i_163_6" x="288.6" y="5.25024" width="3.1499" height="3.1499" filterUnits="userSpaceOnUse" color-interpolation-filters="sRGB">
<feFlood flood-opacity="0" result="BackgroundImageFix"/>
<feBlend mode="normal" in="SourceGraphic" in2="BackgroundImageFix" result="shape"/>
<feColorMatrix in="SourceAlpha" type="matrix" values="0 0 0 0 0 0 0 0 0 0 0 0 0 0 0 0 0 0 127 0" result="hardAlpha"/>
<feOffset/>
<feGaussianBlur stdDeviation="0.35"/>
<feComposite in2="hardAlpha" operator="arithmetic" k2="-1" k3="1"/>
<feColorMatrix type="matrix" values="0 0 0 0 0 0 0 0 0 0 0 0 0 0 0 0 0 0 0.6 0"/>
<feBlend mode="normal" in2="shape" result="effect1_innerShadow_163_6"/>
</filter>
<filter id="filter6_i_163_6" x="276" y="162" width="99.5752" height="15.05" filterUnits="userSpaceOnUse" color-interpolation-filters="sRGB">
<feFlood flood-opacity="0" result="BackgroundImageFix"/>
<feBlend mode="normal" in="SourceGraphic" in2="BackgroundImageFix" result="shape"/>
<feColorMatrix in="SourceAlpha" type="matrix" values="0 0 0 0 0 0 0 0 0 0 0 0 0 0 0 0 0 0 127 0" result="hardAlpha"/>
<feOffset/>
<feGaussianBlur stdDeviation="1.05"/>
<feComposite in2="hardAlpha" operator="arithmetic" k2="-1" k3="1"/>
<feColorMatrix type="matrix" values="0 0 0 0 0 0 0 0 0 0 0 0 0 0 0 0 0 0 0.5 0"/>
<feBlend mode="normal" in2="shape" result="effect1_innerShadow_163_6"/>
</filter>
<filter id="filter7_i_163_6" x="293.777" y="163.399" width="64.2656" height="10.502" filterUnits="userSpaceOnUse" color-interpolation-filters="sRGB">
<feFlood flood-opacity="0" result="BackgroundImageFix"/>
<feBlend mode="normal" in="SourceGraphic" in2="BackgroundImageFix" result="shape"/>
<feColorMatrix in="SourceAlpha" type="matrix" values="0 0 0 0 0 0 0 0 0 0 0 0 0 0 0 0 0 0 127 0" result="hardAlpha"/>
<feOffset dy="-1.75"/>
<feGaussianBlur stdDeviation="2.1"/>
<feComposite in2="hardAlpha" operator="arithmetic" k2="-1" k3="1"/>
<feColorMatrix type="matrix" values="0 0 0 0 0 0 0 0 0 0 0 0 0 0 0 0 0 0 0.57 0"/>
<feBlend mode="normal" in2="shape" result="effect1_innerShadow_163_6"/>
</filter>
<filter id="filter8_i_163_6" x="300.5" y="164.1" width="50.3999" height="9.09985" filterUnits="userSpaceOnUse" color-interpolation-filters="sRGB">
<feFlood flood-opacity="0" result="BackgroundImageFix"/>
<feBlend mode="normal" in="SourceGraphic" in2="BackgroundImageFix" result="shape"/>
<feColorMatrix in="SourceAlpha" type="matrix" values="0 0 0 0 0 0 0 0 0 0 0 0 0 0 0 0 0 0 127 0" result="hardAlpha"/>
<feOffset dy="-1.75"/>
<feGaussianBlur stdDeviation="2.1"/>
<feComposite in2="hardAlpha" operator="arithmetic" k2="-1" k3="1"/>
<feColorMatrix type="matrix" values="0 0 0 0 0 0 0 0 0 0 0 0 0 0 0 0 0 0 0.57 0"/>
<feBlend mode="normal" in2="shape" result="effect1_innerShadow_163_6"/>
</filter>
<filter id="filter9_i_163_6" x="359.649" y="168.649" width="3.1499" height="3.15015" filterUnits="userSpaceOnUse" color-interpolation-filters="sRGB">
<feFlood flood-opacity="0" result="BackgroundImageFix"/>
<feBlend mode="normal" in="SourceGraphic" in2="BackgroundImageFix" result="shape"/>
<feColorMatrix in="SourceAlpha" type="matrix" values="0 0 0 0 0 0 0 0 0 0 0 0 0 0 0 0 0 0 127 0" result="hardAlpha"/>
<feOffset/>
<feGaussianBlur stdDeviation="0.35"/>
<feComposite in2="hardAlpha" operator="arithmetic" k2="-1" k3="1"/>
<feColorMatrix type="matrix" values="0 0 0 0 0 0 0 0 0 0 0 0 0 0 0 0 0 0 0.6 0"/>
<feBlend mode="normal" in2="shape" result="effect1_innerShadow_163_6"/>
</filter>
<filter id="filter10_i_163_6" x="288.6" y="168.649" width="3.1499" height="3.15015" filterUnits="userSpaceOnUse" color-interpolation-filters="sRGB">
<feFlood flood-opacity="0" result="BackgroundImageFix"/>
<feBlend mode="normal" in="SourceGraphic" in2="BackgroundImageFix" result="shape"/>
<feColorMatrix in="SourceAlpha" type="matrix" values="0 0 0 0 0 0 0 0 0 0 0 0 0 0 0 0 0 0 127 0" result="hardAlpha"/>
<feOffset/>
<feGaussianBlur stdDeviation="0.35"/>
<feComposite in2="hardAlpha" operator="arithmetic" k2="-1" k3="1"/>
<feColorMatrix type="matrix" values="0 0 0 0 0 0 0 0 0 0 0 0 0 0 0 0 0 0 0.6 0"/>
<feBlend mode="normal" in2="shape" result="effect1_innerShadow_163_6"/>
</filter>
<filter id="filter11_i_163_6" x="0" y="51" width="15.0498" height="74.8999" filterUnits="userSpaceOnUse" color-interpolation-filters="sRGB">
<feFlood flood-opacity="0" result="BackgroundImageFix"/>
<feBlend mode="normal" in="SourceGraphic" in2="BackgroundImageFix" result="shape"/>
<feColorMatrix in="SourceAlpha" type="matrix" values="0 0 0 0 0 0 0 0 0 0 0 0 0 0 0 0 0 0 127 0" result="hardAlpha"/>
<feOffset/>
<feGaussianBlur stdDeviation="1.05"/>
<feComposite in2="hardAlpha" operator="arithmetic" k2="-1" k3="1"/>
<feColorMatrix type="matrix" values="0 0 0 0 0 0 0 0 0 0 0 0 0 0 0 0 0 0 0.5 0"/>
<feBlend mode="normal" in2="shape" result="effect1_innerShadow_163_6"/>
</filter>
<filter id="filter12_i_163_6" x="3.14648" y="62.5044" width="8.75293" height="50.3367" filterUnits="userSpaceOnUse" color-interpolation-filters="sRGB">
<feFlood flood-opacity="0" result="BackgroundImageFix"/>
<feBlend mode="normal" in="SourceGraphic" in2="BackgroundImageFix" result="shape"/>
<feColorMatrix in="SourceAlpha" type="matrix" values="0 0 0 0 0 0 0 0 0 0 0 0 0 0 0 0 0 0 127 0" result="hardAlpha"/>
<feOffset dy="-1.75"/>
<feGaussianBlur stdDeviation="2.1"/>
<feComposite in2="hardAlpha" operator="arithmetic" k2="-1" k3="1"/>
<feColorMatrix type="matrix" values="0 0 0 0 0 0 0 0 0 0 0 0 0 0 0 0 0 0 0.57 0"/>
<feBlend mode="normal" in2="shape" result="effect1_innerShadow_163_6"/>
</filter>
<filter id="filter13_i_163_6" x="3.84961" y="67.6785" width="7.3501" height="39.6606" filterUnits="userSpaceOnUse" color-interpolation-filters="sRGB">
<feFlood flood-opacity="0" result="BackgroundImageFix"/>
<feBlend mode="normal" in="SourceGraphic" in2="BackgroundImageFix" result="shape"/>
<feColorMatrix in="SourceAlpha" type="matrix" values="0 0 0 0 0 0 0 0 0 0 0 0 0 0 0 0 0 0 127 0" result="hardAlpha"/>
<feOffset dy="-1.75"/>
<feGaussianBlur stdDeviation="2.1"/>
<feComposite in2="hardAlpha" operator="arithmetic" k2="-1" k3="1"/>
<feColorMatrix type="matrix" values="0 0 0 0 0 0 0 0 0 0 0 0 0 0 0 0 0 0 0.57 0"/>
<feBlend mode="normal" in2="shape" result="effect1_innerShadow_163_6"/>
</filter>
<filter id="filter14_i_163_6" x="5.45898" y="113.74" width="2.73193" height="2.73193" filterUnits="userSpaceOnUse" color-interpolation-filters="sRGB">
<feFlood flood-opacity="0" result="BackgroundImageFix"/>
<feBlend mode="normal" in="SourceGraphic" in2="BackgroundImageFix" result="shape"/>
<feColorMatrix in="SourceAlpha" type="matrix" values="0 0 0 0 0 0 0 0 0 0 0 0 0 0 0 0 0 0 127 0" result="hardAlpha"/>
<feOffset/>
<feGaussianBlur stdDeviation="0.35"/>
<feComposite in2="hardAlpha" operator="arithmetic" k2="-1" k3="1"/>
<feColorMatrix type="matrix" values="0 0 0 0 0 0 0 0 0 0 0 0 0 0 0 0 0 0 0.6 0"/>
<feBlend mode="normal" in2="shape" result="effect1_innerShadow_163_6"/>
</filter>
<filter id="filter15_i_163_6" x="5.45898" y="60.2964" width="2.73193" height="2.73193" filterUnits="userSpaceOnUse" color-interpolation-filters="sRGB">
<feFlood flood-opacity="0" result="BackgroundImageFix"/>
<feBlend mode="normal" in="SourceGraphic" in2="BackgroundImageFix" result="shape"/>
<feColorMatrix in="SourceAlpha" type="matrix" values="0 0 0 0 0 0 0 0 0 0 0 0 0 0 0 0 0 0 127 0" result="hardAlpha"/>
<feOffset/>
<feGaussianBlur stdDeviation="0.35"/>
<feComposite in2="hardAlpha" operator="arithmetic" k2="-1" k3="1"/>
<feColorMatrix type="matrix" values="0 0 0 0 0 0 0 0 0 0 0 0 0 0 0 0 0 0 0.6 0"/>
<feBlend mode="normal" in2="shape" result="effect1_innerShadow_163_6"/>
</filter>
<filter id="filter16_i_163_6" x="636" y="49" width="15.0498" height="74.8999" filterUnits="userSpaceOnUse" color-interpolation-filters="sRGB">
<feFlood flood-opacity="0" result="BackgroundImageFix"/>
<feBlend mode="normal" in="SourceGraphic" in2="BackgroundImageFix" result="shape"/>
<feColorMatrix in="SourceAlpha" type="matrix" values="0 0 0 0 0 0 0 0 0 0 0 0 0 0 0 0 0 0 127 0" result="hardAlpha"/>
<feOffset/>
<feGaussianBlur stdDeviation="1.05"/>
<feComposite in2="hardAlpha" operator="arithmetic" k2="-1" k3="1"/>
<feColorMatrix type="matrix" values="0 0 0 0 0 0 0 0 0 0 0 0 0 0 0 0 0 0 0.5 0"/>
<feBlend mode="normal" in2="shape" result="effect1_innerShadow_163_6"/>
</filter>
<filter id="filter17_i_163_6" x="639.15" y="60.5044" width="8.75293" height="50.3367" filterUnits="userSpaceOnUse" color-interpolation-filters="sRGB">
<feFlood flood-opacity="0" result="BackgroundImageFix"/>
<feBlend mode="normal" in="SourceGraphic" in2="BackgroundImageFix" result="shape"/>
<feColorMatrix in="SourceAlpha" type="matrix" values="0 0 0 0 0 0 0 0 0 0 0 0 0 0 0 0 0 0 127 0" result="hardAlpha"/>
<feOffset dy="-1.75"/>
<feGaussianBlur stdDeviation="2.1"/>
<feComposite in2="hardAlpha" operator="arithmetic" k2="-1" k3="1"/>
<feColorMatrix type="matrix" values="0 0 0 0 0 0 0 0 0 0 0 0 0 0 0 0 0 0 0.57 0"/>
<feBlend mode="normal" in2="shape" result="effect1_innerShadow_163_6"/>
</filter>
<filter id="filter18_i_163_6" x="639.85" y="65.6785" width="7.3501" height="39.6606" filterUnits="userSpaceOnUse" color-interpolation-filters="sRGB">
<feFlood flood-opacity="0" result="BackgroundImageFix"/>
<feBlend mode="normal" in="SourceGraphic" in2="BackgroundImageFix" result="shape"/>
<feColorMatrix in="SourceAlpha" type="matrix" values="0 0 0 0 0 0 0 0 0 0 0 0 0 0 0 0 0 0 127 0" result="hardAlpha"/>
<feOffset dy="-1.75"/>
<feGaussianBlur stdDeviation="2.1"/>
<feComposite in2="hardAlpha" operator="arithmetic" k2="-1" k3="1"/>
<feColorMatrix type="matrix" values="0 0 0 0 0 0 0 0 0 0 0 0 0 0 0 0 0 0 0.57 0"/>
<feBlend mode="normal" in2="shape" result="effect1_innerShadow_163_6"/>
</filter>
<filter id="filter19_i_163_6" x="642.859" y="111.74" width="2.73193" height="2.73193" filterUnits="userSpaceOnUse" color-interpolation-filters="sRGB">
<feFlood flood-opacity="0" result="BackgroundImageFix"/>
<feBlend mode="normal" in="SourceGraphic" in2="BackgroundImageFix" result="shape"/>
<feColorMatrix in="SourceAlpha" type="matrix" values="0 0 0 0 0 0 0 0 0 0 0 0 0 0 0 0 0 0 127 0" result="hardAlpha"/>
<feOffset/>
<feGaussianBlur stdDeviation="0.35"/>
<feComposite in2="hardAlpha" operator="arithmetic" k2="-1" k3="1"/>
<feColorMatrix type="matrix" values="0 0 0 0 0 0 0 0 0 0 0 0 0 0 0 0 0 0 0.6 0"/>
<feBlend mode="normal" in2="shape" result="effect1_innerShadow_163_6"/>
</filter>
<filter id="filter20_i_163_6" x="642.859" y="58.2964" width="2.73193" height="2.73193" filterUnits="userSpaceOnUse" color-interpolation-filters="sRGB">
<feFlood flood-opacity="0" result="BackgroundImageFix"/>
<feBlend mode="normal" in="SourceGraphic" in2="BackgroundImageFix" result="shape"/>
<feColorMatrix in="SourceAlpha" type="matrix" values="0 0 0 0 0 0 0 0 0 0 0 0 0 0 0 0 0 0 127 0" result="hardAlpha"/>
<feOffset/>
<feGaussianBlur stdDeviation="0.35"/>
<feComposite in2="hardAlpha" operator="arithmetic" k2="-1" k3="1"/>
<feColorMatrix type="matrix" values="0 0 0 0 0 0 0 0 0 0 0 0 0 0 0 0 0 0 0.6 0"/>
<feBlend mode="normal" in2="shape" result="effect1_innerShadow_163_6"/>
</filter>
<radialGradient id="paint0_radial_163_6" cx="0" cy="0" r="1" gradientUnits="userSpaceOnUse" gradientTransform="translate(330.144 88.7198) scale(425.213 115.649)">
<stop stop-color="#142D5E"/>
<stop offset="1" stop-color="#020E25"/>
</radialGradient>
<radialGradient id="paint1_radial_163_6" cx="0" cy="0" r="1" gradientUnits="userSpaceOnUse" gradientTransform="translate(329.973 88.69) scale(409.537 99.9678)">
<stop stop-color="#142D5E"/>
<stop offset="1" stop-color="#020E25"/>
</radialGradient>
</defs>
</svg>
